<svg width="24" height="24" viewBox="0 0 24 24" fill="none" xmlns="http://www.w3.org/2000/svg">
<g filter="url(#filter0_d_198_13840)">
<circle cx="12" cy="11" r="11" fill="white"/>
<path d="M12 0C5.9258 0 1 4.9258 1 11C1 17.0742 5.9258 22 12 22C18.0742 22 23 17.0742 23 11C23 4.9258 18.0742 0 12 0ZM17.0225 8.57663C17.0273 8.68489 17.0297 8.79366 17.0297 8.90292C17.0297 12.2392 14.4902 16.0864 9.84602 16.0866H9.84619H9.84602C8.42017 16.0866 7.09334 15.6687 5.97598 14.9525C6.17354 14.9758 6.37462 14.9874 6.57822 14.9874C7.7612 14.9874 8.84985 14.5839 9.7141 13.9066C8.60883 13.8861 7.67694 13.1562 7.35535 12.1529C7.50926 12.1825 7.66754 12.1986 7.82985 12.1986C8.0603 12.1986 8.28354 12.1675 8.4957 12.1096C7.34041 11.8783 6.47012 10.8573 6.47012 9.63474C6.47012 9.62332 6.47012 9.61308 6.47046 9.60251C6.81068 9.79167 7.19975 9.90547 7.614 9.91823C6.93607 9.46588 6.49043 8.69261 6.49043 7.81662C6.49043 7.35403 6.61548 6.92065 6.83234 6.54753C8.07742 8.07527 9.93817 9.08 12.0366 9.18558C11.9933 9.00061 11.971 8.80792 11.971 8.60986C11.971 7.21606 13.1017 6.08528 14.496 6.08528C15.2223 6.08528 15.8783 6.39227 16.339 6.88306C16.9142 6.76959 17.4543 6.55945 17.9423 6.27025C17.7534 6.85956 17.3533 7.35403 16.832 7.66673C17.3427 7.60564 17.8295 7.47018 18.2818 7.2691C17.944 7.7755 17.5154 8.22029 17.0225 8.57663Z" fill="#1DA1F2"/>
</g>
<defs>
<filter id="filter0_d_198_13840" x="0" y="0" width="24" height="24" filterUnits="userSpaceOnUse" color-interpolation-filters="sRGB">
<feFlood flood-opacity="0" result="BackgroundImageFix"/>
<feColorMatrix in="SourceAlpha" type="matrix" values="0 0 0 0 0 0 0 0 0 0 0 0 0 0 0 0 0 0 127 0" result="hardAlpha"/>
<feOffset dy="1"/>
<feGaussianBlur stdDeviation="0.5"/>
<feComposite in2="hardAlpha" operator="out"/>
<feColorMatrix type="matrix" values="0 0 0 0 0 0 0 0 0 0 0 0 0 0 0 0 0 0 0.1 0"/>
<feBlend mode="normal" in2="BackgroundImageFix" result="effect1_dropShadow_198_13840"/>
<feBlend mode="normal" in="SourceGraphic" in2="effect1_dropShadow_198_13840" result="shape"/>
</filter>
</defs>
</svg>
