<svg width="24" height="24" viewBox="0 0 24 24" fill="none" xmlns="http://www.w3.org/2000/svg">
<g filter="url(#filter0_d_198_13836)">
<circle cx="12" cy="11" r="11" fill="#5865F2"/>
<path d="M16.5744 6.99418C15.7331 6.60815 14.8309 6.32373 13.8876 6.16084C13.8704 6.1577 13.8532 6.16555 13.8444 6.18127C13.7284 6.38763 13.5998 6.65686 13.5098 6.86847C12.4952 6.71657 11.4859 6.71657 10.4921 6.86847C10.4021 6.65215 10.2689 6.38763 10.1523 6.18127C10.1435 6.16608 10.1263 6.15822 10.1092 6.16084C9.16638 6.32321 8.26418 6.60763 7.42234 6.99418C7.41505 6.99733 7.4088 7.00257 7.40466 7.00937C5.69339 9.56597 5.2246 12.0597 5.45457 14.5226C5.45561 14.5346 5.46238 14.5461 5.47174 14.5535C6.60079 15.3826 7.69446 15.886 8.76783 16.2196C8.78501 16.2249 8.80321 16.2186 8.81414 16.2044C9.06804 15.8577 9.29438 15.4921 9.48844 15.1076C9.49989 15.0851 9.48896 15.0584 9.46555 15.0495C9.10655 14.9133 8.7647 14.7473 8.43588 14.5587C8.40987 14.5435 8.40778 14.5063 8.43171 14.4885C8.50091 14.4367 8.57013 14.3827 8.6362 14.3282C8.64815 14.3183 8.66481 14.3162 8.67887 14.3225C10.8391 15.3088 13.1779 15.3088 15.3126 14.3225C15.3267 14.3157 15.3434 14.3178 15.3558 14.3277C15.4219 14.3822 15.4911 14.4367 15.5608 14.4885C15.5848 14.5063 15.5832 14.5435 15.5572 14.5587C15.2284 14.7509 14.8865 14.9133 14.527 15.049C14.5036 15.0579 14.4932 15.0851 14.5046 15.1076C14.7029 15.4916 14.9292 15.8572 15.1784 16.2039C15.1888 16.2186 15.2076 16.2249 15.2247 16.2196C16.3033 15.886 17.397 15.3826 18.526 14.5535C18.5359 14.5461 18.5422 14.5351 18.5432 14.5231C18.8184 11.6758 18.0822 9.20247 16.5915 7.00989C16.5879 7.00257 16.5817 6.99733 16.5744 6.99418ZM9.81104 13.023C9.16065 13.023 8.62475 12.4259 8.62475 11.6925C8.62475 10.9592 9.15026 10.3621 9.81104 10.3621C10.477 10.3621 11.0077 10.9645 10.9973 11.6925C10.9973 12.4259 10.4718 13.023 9.81104 13.023ZM14.1971 13.023C13.5468 13.023 13.0109 12.4259 13.0109 11.6925C13.0109 10.9592 13.5364 10.3621 14.1971 10.3621C14.8631 10.3621 15.3938 10.9645 15.3834 11.6925C15.3834 12.4259 14.8631 13.023 14.1971 13.023Z" fill="white"/>
</g>
<defs>
<filter id="filter0_d_198_13836" x="0" y="0" width="24" height="24" filterUnits="userSpaceOnUse" color-interpolation-filters="sRGB">
<feFlood flood-opacity="0" result="BackgroundImageFix"/>
<feColorMatrix in="SourceAlpha" type="matrix" values="0 0 0 0 0 0 0 0 0 0 0 0 0 0 0 0 0 0 127 0" result="hardAlpha"/>
<feOffset dy="1"/>
<feGaussianBlur stdDeviation="0.5"/>
<feComposite in2="hardAlpha" operator="out"/>
<feColorMatrix type="matrix" values="0 0 0 0 0 0 0 0 0 0 0 0 0 0 0 0 0 0 0.1 0"/>
<feBlend mode="normal" in2="BackgroundImageFix" result="effect1_dropShadow_198_13836"/>
<feBlend mode="normal" in="SourceGraphic" in2="effect1_dropShadow_198_13836" result="shape"/>
</filter>
</defs>
</svg>
