<svg width="24" height="24" viewBox="0 0 24 24" fill="none" xmlns="http://www.w3.org/2000/svg">
<g filter="url(#filter0_d_198_13830)">
<circle cx="12" cy="11" r="11" fill="url(#paint0_linear_198_13830)"/>
<circle cx="12" cy="11" r="11" fill="url(#paint1_linear_198_13830)"/>
<path d="M12.0004 5.5C10.5067 5.5 10.3192 5.50653 9.73254 5.53323C9.14702 5.56004 8.74735 5.65274 8.39763 5.78875C8.03589 5.92923 7.72903 6.11715 7.42332 6.42297C7.11738 6.72868 6.92946 7.03553 6.78852 7.39716C6.65217 7.74698 6.55935 8.14676 6.533 8.73205C6.50688 9.31872 6.5 9.50629 6.5 11C6.5 12.4937 6.50665 12.6806 6.53323 13.2673C6.56016 13.8528 6.65286 14.2524 6.78875 14.6022C6.92935 14.9639 7.11727 15.2708 7.42309 15.5765C7.72869 15.8824 8.03555 16.0708 8.39706 16.2113C8.747 16.3473 9.14679 16.44 9.7322 16.4668C10.3189 16.4935 10.5062 16.5 11.9998 16.5C13.4937 16.5 13.6806 16.4935 14.2672 16.4668C14.8528 16.44 15.2529 16.3473 15.6028 16.2113C15.9645 16.0708 16.2709 15.8824 16.5764 15.5765C16.8824 15.2708 17.0703 14.9639 17.2112 14.6023C17.3465 14.2524 17.4393 13.8527 17.4668 13.2674C17.4931 12.6807 17.5 12.4937 17.5 11C17.5 9.50629 17.4931 9.31883 17.4668 8.73217C17.4393 8.14665 17.3465 7.74698 17.2112 7.39727C17.0703 7.03553 16.8824 6.72868 16.5764 6.42297C16.2705 6.11703 15.9646 5.92911 15.6025 5.78875C15.2519 5.65274 14.852 5.56004 14.2664 5.53323C13.6798 5.50653 13.493 5.5 11.9988 5.5H12.0004ZM11.507 6.49115C11.6534 6.49092 11.8168 6.49115 12.0004 6.49115C13.4689 6.49115 13.643 6.49642 14.2229 6.52277C14.7591 6.54729 15.0502 6.6369 15.2441 6.71218C15.5007 6.81186 15.6837 6.93103 15.8761 7.12353C16.0686 7.31603 16.1878 7.49936 16.2877 7.75603C16.363 7.94968 16.4527 8.24072 16.4771 8.77697C16.5035 9.35676 16.5092 9.53093 16.5092 10.9987C16.5092 12.4666 16.5035 12.6407 16.4771 13.2205C16.4526 13.7568 16.363 14.0478 16.2877 14.2414C16.188 14.4981 16.0686 14.6809 15.8761 14.8733C15.6836 15.0658 15.5008 15.1849 15.2441 15.2846C15.0504 15.3602 14.7591 15.4496 14.2229 15.4741C13.6431 15.5005 13.4689 15.5062 12.0004 15.5062C10.5318 15.5062 10.3577 15.5005 9.77792 15.4741C9.24166 15.4494 8.95062 15.3598 8.75663 15.2845C8.49996 15.1848 8.31662 15.0656 8.12412 14.8731C7.93162 14.6806 7.81245 14.4978 7.71253 14.241C7.63725 14.0473 7.54753 13.7563 7.52313 13.2201C7.49677 12.6403 7.4915 12.4661 7.4915 10.9974C7.4915 9.52864 7.49677 9.35539 7.52313 8.77559C7.54765 8.23934 7.63725 7.9483 7.71253 7.75443C7.81222 7.49776 7.93162 7.31443 8.12412 7.12193C8.31662 6.92943 8.49996 6.81026 8.75663 6.71034C8.9505 6.63472 9.24166 6.54534 9.77792 6.52071C10.2853 6.49779 10.4819 6.49092 11.507 6.48977V6.49115ZM14.9363 7.40437C14.8057 7.40437 14.6781 7.44309 14.5696 7.51562C14.461 7.58815 14.3764 7.69124 14.3265 7.81186C14.2765 7.93247 14.2635 8.06519 14.289 8.19322C14.3145 8.32125 14.3773 8.43885 14.4697 8.53115C14.562 8.62344 14.6796 8.68628 14.8077 8.71172C14.9357 8.73716 15.0684 8.72406 15.189 8.67407C15.3096 8.62408 15.4127 8.53945 15.4852 8.43088C15.5577 8.32232 15.5963 8.19469 15.5963 8.06415C15.5963 7.69977 15.3007 7.40415 14.9363 7.40415V7.40437ZM12.0004 8.17552C10.4406 8.17552 9.17589 9.44018 9.17589 11C9.17589 12.5598 10.4406 13.8239 12.0004 13.8239C13.5602 13.8239 14.8246 12.5598 14.8246 11C14.8246 9.44018 13.5601 8.17552 12.0003 8.17552H12.0004ZM12.0004 9.16667C13.0129 9.16667 13.8338 9.98743 13.8338 11C13.8338 12.0125 13.0129 12.8333 12.0004 12.8333C10.9878 12.8333 10.167 12.0125 10.167 11C10.167 9.98743 10.9878 9.16667 12.0004 9.16667Z" fill="white"/>
</g>
<defs>
<filter id="filter0_d_198_13830" x="0" y="0" width="24" height="24" filterUnits="userSpaceOnUse" color-interpolation-filters="sRGB">
<feFlood flood-opacity="0" result="BackgroundImageFix"/>
<feColorMatrix in="SourceAlpha" type="matrix" values="0 0 0 0 0 0 0 0 0 0 0 0 0 0 0 0 0 0 127 0" result="hardAlpha"/>
<feOffset dy="1"/>
<feGaussianBlur stdDeviation="0.5"/>
<feComposite in2="hardAlpha" operator="out"/>
<feColorMatrix type="matrix" values="0 0 0 0 0 0 0 0 0 0 0 0 0 0 0 0 0 0 0.1 0"/>
<feBlend mode="normal" in2="BackgroundImageFix" result="effect1_dropShadow_198_13830"/>
<feBlend mode="normal" in="SourceGraphic" in2="effect1_dropShadow_198_13830" result="shape"/>
</filter>
<linearGradient id="paint0_linear_198_13830" x1="12" y1="5.95833" x2="5.125" y2="21.0833" gradientUnits="userSpaceOnUse">
<stop stop-color="#C838AB"/>
<stop offset="0.453125" stop-color="#FA524A"/>
<stop offset="1" stop-color="#FFCC52"/>
</linearGradient>
<linearGradient id="paint1_linear_198_13830" x1="8.33333" y1="0.916667" x2="12.4583" y2="9.625" gradientUnits="userSpaceOnUse">
<stop stop-color="#4A72CF"/>
<stop offset="0.973958" stop-color="#4A72CF" stop-opacity="0"/>
</linearGradient>
</defs>
</svg>
