<svg width="24" height="24" viewBox="0 0 24 24" fill="none" xmlns="http://www.w3.org/2000/svg">
<g filter="url(#filter0_d_198_13825)">
<circle cx="12" cy="11" r="11" fill="#4285FD"/>
<path d="M11.4292 14.2277C11.6079 14.2277 11.7688 14.3952 11.7688 14.6256C11.7688 14.835 11.6258 15.0235 11.4292 15.0235C11.2505 15.0235 11.0896 14.8559 11.0896 14.6256C11.0896 14.3952 11.2505 14.2277 11.4292 14.2277ZM16.6834 11.7985C16.5047 11.7985 16.3438 11.631 16.3438 11.4006C16.3438 11.1912 16.4868 11.0028 16.6834 11.0028C16.8621 11.0028 17.0229 11.1703 17.0229 11.4006C17.0229 11.61 16.8621 11.7985 16.6834 11.7985ZM16.6834 10.1861C16.1115 10.1861 15.6468 10.7305 15.6468 11.4006C15.6468 11.5263 15.6647 11.6519 15.7004 11.7776L12.287 13.9136C12.0904 13.5785 11.7688 13.39 11.4292 13.39C11.036 13.39 10.6786 13.6623 10.4999 14.0602L7.42602 12.1755C7.10434 11.966 6.85414 11.3588 6.88988 10.7724C6.90776 10.4792 6.99711 10.2489 7.12221 10.1651C7.21157 10.1023 7.30092 10.1232 7.42602 10.1861L7.4439 10.207C8.26598 10.7096 10.9288 12.343 11.036 12.4058C11.2147 12.4896 11.3041 12.5315 11.6079 12.3639L17.1123 9.01335C17.2016 8.97147 17.291 8.8877 17.291 8.74112C17.291 8.55265 17.1302 8.46888 17.1302 8.46888C16.8085 8.30135 16.3259 8.02912 15.8613 7.77783C14.8605 7.23336 13.7167 6.60512 13.2163 6.29101C12.7874 6.01877 12.43 6.24912 12.3764 6.29101L12.2513 6.35383C9.98162 7.69406 6.97924 9.43217 6.80053 9.55782C6.49672 9.76723 6.30013 10.207 6.28226 10.7515C6.24652 11.61 6.62181 12.5105 7.15795 12.8246L10.4105 14.7931C10.482 15.3794 10.9288 15.8402 11.4292 15.8402C12.0011 15.8402 12.4479 15.3166 12.4657 14.6465L16.04 12.3849C16.2187 12.5524 16.451 12.6362 16.6834 12.6362C17.2553 12.6362 17.7199 12.0917 17.7199 11.4216C17.7199 10.7305 17.2553 10.1861 16.6834 10.1861Z" fill="white"/>
</g>
<defs>
<filter id="filter0_d_198_13825" x="0" y="0" width="24" height="24" filterUnits="userSpaceOnUse" color-interpolation-filters="sRGB">
<feFlood flood-opacity="0" result="BackgroundImageFix"/>
<feColorMatrix in="SourceAlpha" type="matrix" values="0 0 0 0 0 0 0 0 0 0 0 0 0 0 0 0 0 0 127 0" result="hardAlpha"/>
<feOffset dy="1"/>
<feGaussianBlur stdDeviation="0.5"/>
<feComposite in2="hardAlpha" operator="out"/>
<feColorMatrix type="matrix" values="0 0 0 0 0 0 0 0 0 0 0 0 0 0 0 0 0 0 0.1 0"/>
<feBlend mode="normal" in2="BackgroundImageFix" result="effect1_dropShadow_198_13825"/>
<feBlend mode="normal" in="SourceGraphic" in2="effect1_dropShadow_198_13825" result="shape"/>
</filter>
</defs>
</svg>
