<?xml version="1.0" encoding="utf-8"?>
<!-- Generator: Adobe Illustrator 22.0.0, SVG Export Plug-In . SVG Version: 6.00 Build 0)  -->
<svg version="1.1" id="Layer_1" xmlns="http://www.w3.org/2000/svg" xmlns:xlink="http://www.w3.org/1999/xlink" x="0px" y="0px"
	 viewBox="0 0 29.9 30" style="enable-background:new 0 0 29.9 30;" xml:space="preserve">
<style type="text/css">
	.st0{fill:#3A86FF;}
	.st1{fill:#FFFFFF;}
</style>
<path class="st0" d="M15,0.6c8,0,14.4,6.5,14.4,14.4c0,8-6.5,14.4-14.4,14.4C7,29.4,0.6,22.9,0.6,15C0.6,7.1,7,0.6,15,0.6z"/>
<path class="st1" d="M21.5,17.7c0.1,0,0.1,0.1,0.2,0.1c0.4,0.4,0.6,1,0.6,1.6c0,0.6-0.2,1.2-0.6,1.6c-0.4,0.4-1,0.6-1.6,0.6
	c-0.3,0-0.6-0.1-0.9-0.2l-1.1,0.6c-0.3,0.2-0.6,0.2-0.9,0.2c-0.1,0.5-0.3,0.9-0.6,1.2c-0.4,0.4-1,0.7-1.6,0.7
	c-0.6,0-1.2-0.2-1.6-0.7c-0.3-0.3-0.5-0.8-0.6-1.2c-0.3,0-0.6,0-0.9-0.2l-1.1-0.6c-0.3,0.1-0.6,0.2-0.9,0.2c-0.6,0-1.2-0.2-1.6-0.6
	c-0.4-0.4-0.7-1-0.7-1.6c0-0.6,0.2-1.2,0.7-1.6c0,0,0.1-0.1,0.2-0.1V16v-0.4V14l-1.3-0.8c-0.3-0.2-0.6-0.4-0.8-0.7
	c-0.2-0.3-0.3-0.6-0.2-1c0-0.3,0.1-0.7,0.3-0.9c0.2-0.4,0.5-0.6,0.9-0.8l5.8-3.5c0.5-0.3,1.1-0.4,1.6-0.5c0,0,0.1,0,0.1,0
	c0.1,0,0.1,0,0.2,0c0.5,0,1.1,0.2,1.6,0.5l5.9,3.5c0.3,0.2,0.6,0.5,0.9,0.8c0.2,0.3,0.3,0.6,0.3,0.9c0,0.4-0.1,0.7-0.3,1
	c-0.2,0.3-0.4,0.5-0.7,0.7L21.5,14v1.3V16V17.7z M15,18.5l-2.4-1.5l-0.7-0.4c-0.2-0.2-0.5-0.1-0.7,0.2c-0.1,0.2-0.1,0.5,0.2,0.7
	l3.1,1.8v1.4c-0.2,0.1-0.3,0.2-0.4,0.2c-0.2,0.2-0.4,0.6-0.4,0.9c0,0.4,0.1,0.7,0.4,0.9c0.2,0.2,0.6,0.4,0.9,0.4
	c0.4,0,0.7-0.2,0.9-0.4c0.2-0.2,0.4-0.6,0.4-0.9c0-0.3-0.2-0.7-0.4-0.9c-0.1-0.1-0.2-0.2-0.4-0.2v-1.4l3.1-1.8
	c0.2-0.2,0.3-0.5,0.2-0.7c-0.1-0.2-0.4-0.3-0.7-0.2l-0.7,0.4L15,18.5z M12.9,20.5c0.2,0.2,0.3,0.5,0.2,0.7c-0.2,0.2-0.5,0.3-0.7,0.2
	l-1.6-0.9c-0.2,0.2-0.5,0.3-0.9,0.3c-0.3,0-0.7-0.2-0.9-0.4c-0.2-0.2-0.4-0.5-0.4-0.9c0-0.4,0.2-0.7,0.4-0.9
	c0.2-0.2,0.6-0.4,0.9-0.4c0.4,0,0.7,0.2,0.9,0.4c0.2,0.2,0.4,0.5,0.4,0.9c0,0,0,0.1,0,0.1L12.9,20.5z M17.1,20.5
	c-0.2,0.2-0.3,0.5-0.2,0.7c0.2,0.2,0.4,0.3,0.7,0.2l1.6-0.9c0.2,0.2,0.5,0.3,0.9,0.3c0.4,0,0.7-0.2,0.9-0.4c0.2-0.2,0.4-0.5,0.4-0.9
	c0-0.4-0.2-0.7-0.4-0.9c-0.2-0.2-0.5-0.4-0.9-0.4s-0.7,0.2-0.9,0.4c-0.2,0.2-0.4,0.5-0.4,0.9c0,0,0,0.1,0,0.1L17.1,20.5z M15,16.3
	c0.4,0,0.9-0.1,1.2-0.2l3.4-2v2c0,0.3,0.2,0.5,0.5,0.5c0.3,0,0.5-0.2,0.5-0.5v-2.5c0,0,0,0,0,0l1.7-1c0.2-0.1,0.3-0.2,0.4-0.4
	c0.1-0.2,0.2-0.3,0.1-0.5c0-0.2,0-0.3-0.1-0.5c-0.1-0.2-0.3-0.3-0.5-0.5L16.3,7c-0.3-0.2-0.8-0.3-1.2-0.3c0,0-0.1,0-0.1,0
	c0,0-0.1,0-0.1,0c-0.4,0-0.8,0.1-1.2,0.3l-5.9,3.5c-0.2,0.2-0.4,0.3-0.5,0.5c-0.1,0.2-0.2,0.3-0.2,0.5c0,0.2,0.1,0.3,0.2,0.5
	c0.1,0.2,0.2,0.3,0.4,0.4l1.7,1c0,0,0,0,0,0V16c0,0.3,0.2,0.5,0.5,0.5c0.3,0,0.5-0.2,0.5-0.5v-2l3.4,2C14.2,16.3,14.6,16.4,15,16.3z
	 M15,7.7C15,7.7,15.1,7.7,15,7.7c0.3,0,0.6,0.1,0.8,0.2l5.9,3.5c0.1,0,0.2,0.1,0.2,0.2c0,0,0,0.1-0.1,0.1l-1.6,0.9l-4-2.4
	c-0.2-0.1-0.4-0.2-0.5-0.2c-0.2-0.1-0.4-0.1-0.6-0.1H15h0h0c-0.2,0-0.4,0-0.6,0.1C14.1,10,14,10,13.8,10.1l-4,2.4l-1.5-0.9
	c0,0-0.1,0-0.1-0.1c0-0.1,0.1-0.1,0.2-0.2l5.9-3.5C14.4,7.8,14.7,7.7,15,7.7C15,7.7,15,7.7,15,7.7z M15,10.8
	C15,10.8,15,10.8,15,10.8c0.2,0,0.3,0,0.4,0.1c0.1,0,0.2,0.1,0.3,0.1l3.5,2.1l-3.6,2.1c-0.2,0.1-0.4,0.1-0.6,0.1h0h0
	c-0.2,0-0.5,0-0.6-0.1l-3.6-2.1l3.5-2.1c0.1-0.1,0.2-0.1,0.3-0.1C14.7,10.8,14.8,10.8,15,10.8L15,10.8z M19.7,19.1
	c0.1-0.1,0.2-0.2,0.3-0.2c0.1,0,0.2,0.1,0.3,0.2c0.1,0.1,0.2,0.2,0.2,0.3c0,0.1-0.1,0.2-0.2,0.3c-0.1,0.1-0.2,0.2-0.3,0.2
	c-0.1,0-0.2-0.1-0.3-0.2c-0.1-0.1-0.2-0.2-0.2-0.3C19.5,19.3,19.6,19.2,19.7,19.1z M10.3,19.1c-0.1-0.1-0.2-0.2-0.4-0.2
	c-0.1,0-0.2,0.1-0.3,0.2c-0.1,0.1-0.1,0.2-0.1,0.3c0,0.1,0.1,0.2,0.1,0.3c0.1,0.1,0.2,0.2,0.3,0.2c0.2,0,0.3-0.1,0.4-0.2
	c0.1-0.1,0.1-0.2,0.1-0.3C10.5,19.3,10.4,19.2,10.3,19.1z M15,22.5c-0.1,0-0.2-0.1-0.3-0.1c-0.1-0.1-0.1-0.2-0.1-0.4
	c0-0.1,0-0.2,0.1-0.3c0.1-0.1,0.2-0.1,0.3-0.1c0.2,0,0.3,0,0.3,0.1c0.1,0.1,0.2,0.2,0.2,0.3c0,0.2-0.1,0.3-0.2,0.4
	C15.3,22.4,15.1,22.5,15,22.5z"/>
</svg>
