<svg width="12" height="14" viewBox="0 0 12 14" fill="none" xmlns="http://www.w3.org/2000/svg">
<path d="M11.1769 3.68958L7.71024 0.222917C7.60997 0.12265 7.4745 0.0666504 7.33317 0.0666504H1.73317C1.14384 0.0666504 0.666504 0.543984 0.666504 1.13332V12.8667C0.666504 13.456 1.14384 13.9333 1.73317 13.9333H10.2665C10.8558 13.9333 11.3332 13.456 11.3332 12.8667V4.06665C11.3332 3.92532 11.2772 3.78985 11.1769 3.68958ZM7.59984 10.2H3.33317C3.03877 10.2 2.79984 9.96105 2.79984 9.66665C2.79984 9.37225 3.03877 9.13332 3.33317 9.13332H7.59984C7.89424 9.13332 8.13317 9.37225 8.13317 9.66665C8.13317 9.96105 7.89424 10.2 7.59984 10.2ZM8.6665 8.06665H3.33317C3.03877 8.06665 2.79984 7.82772 2.79984 7.53332C2.79984 7.23892 3.03877 6.99998 3.33317 6.99998H8.6665C8.9609 6.99998 9.19984 7.23892 9.19984 7.53332C9.19984 7.82772 8.9609 8.06665 8.6665 8.06665ZM7.59984 4.33332C7.30544 4.33332 7.0665 4.09438 7.0665 3.79998V1.08212L10.3177 4.33332H7.59984Z" fill="#666CFF"/>
</svg>
