<svg width="32" height="32" viewBox="0 0 32 32" fill="none" xmlns="http://www.w3.org/2000/svg">
<path fill-rule="evenodd" clip-rule="evenodd" d="M10.3534 14.6574L16.8639 10.93L14.7766 9.68748L10.3534 7.15283L5.93013 9.68748L3.84277 10.93L10.3534 14.6574Z" fill="white"/>
<path fill-rule="evenodd" clip-rule="evenodd" d="M14.3794 12.371L13.5842 11.9237L10.3538 10.0352L7.12331 11.9237L6.32812 12.371L10.3538 14.6572L14.3794 12.371Z" fill="#666CFF" fill-opacity="0.1"/>
<path fill-rule="evenodd" clip-rule="evenodd" d="M4.88632 16.4969L7.86827 18.2364L10.3532 19.6777L12.8382 18.2364L15.8201 16.4969H15.8698V19.628C15.8698 20.3237 15.8698 20.9698 15.8698 21.6159L18.3051 23.0572V21.8147V17.8885V15.7017V13.4156V12.2228V12.1731L10.3532 16.7951L2.40137 12.1731V12.2228V13.4156V15.7017V23.0572L4.83662 21.6159C4.83662 20.9698 4.83662 20.3237 4.83662 19.628V16.4969H4.88632Z" fill="white"/>
<path fill-rule="evenodd" clip-rule="evenodd" d="M15.9831 0C24.8212 0 32 7.17884 32 15.9831C32 24.8212 24.8212 32 15.9831 32C7.14497 32 0 24.8212 0 15.9831C0 7.17884 7.14497 0 15.9831 0Z" fill="#666CFF"/>
<path d="M15.9831 0.5C24.5457 0.5 31.5 7.45567 31.5 15.9831C31.5 24.545 24.545 31.5 15.9831 31.5C7.42249 31.5 0.5 24.5464 0.5 15.9831C0.5 7.45429 7.42181 0.5 15.9831 0.5Z" stroke="black" stroke-opacity="0.1"/>
<path fill-rule="evenodd" clip-rule="evenodd" d="M23.1612 18.9975C23.229 19.0314 23.2628 19.0991 23.3306 19.133C23.8046 19.6071 24.0417 20.2504 24.0417 20.8938C24.0417 21.5711 23.8046 22.1806 23.3306 22.6547C22.8565 23.1288 22.247 23.3658 21.5697 23.3658C21.2311 23.3658 20.9263 23.2981 20.6216 23.1965L19.4025 23.9076C19.0977 24.0769 18.7591 24.1446 18.4544 24.1108C18.3528 24.6526 18.1157 25.1266 17.7433 25.4991C17.2692 25.9732 16.6597 26.2441 15.9824 26.2441C15.339 26.2441 14.6956 25.9732 14.2216 25.4991C13.8491 25.1266 13.612 24.6526 13.5443 24.1108C13.2057 24.1446 12.9009 24.0769 12.5962 23.9076L11.3771 23.1965C11.0724 23.2981 10.7337 23.3658 10.3951 23.3658C9.75172 23.3658 9.10833 23.1288 8.66812 22.6547C8.19405 22.1806 7.92315 21.5711 7.92315 20.8938C7.92315 20.2504 8.19405 19.6071 8.66812 19.133C8.70198 19.0991 8.76971 19.0314 8.83743 18.9975V17.1351V16.6949V14.9002L7.44907 14.0536C7.11045 13.8504 6.80569 13.5795 6.60251 13.2409C6.39934 12.9023 6.29775 12.5298 6.33161 12.1235C6.33161 11.751 6.4332 11.3785 6.63637 11.0737C6.87341 10.6674 7.17817 10.3626 7.58452 10.1594L14.0522 6.26526C14.594 5.9605 15.2374 5.79119 15.847 5.75732C15.8808 5.75732 15.9485 5.75732 15.9824 5.75732C16.0501 5.75732 16.084 5.75732 16.1517 5.75732C16.7612 5.79119 17.4046 5.9605 17.9126 6.26526L24.4142 10.1594C24.7866 10.3626 25.1253 10.6674 25.3623 11.0737C25.5316 11.3785 25.6671 11.751 25.6671 12.1235C25.6671 12.5298 25.5655 12.9023 25.3623 13.2409C25.1591 13.5795 24.8882 13.8504 24.5496 14.0536L23.1612 14.9002V16.3563V17.1351V18.9975ZM15.9824 19.9457L13.2734 18.3203L12.5284 17.8801C12.2575 17.7108 11.9189 17.8124 11.7496 18.0833C11.6142 18.3203 11.6819 18.6589 11.9528 18.8282L15.4067 20.86V22.4515C15.2374 22.5192 15.102 22.6208 14.9665 22.7224C14.6956 22.9933 14.5602 23.3658 14.5602 23.7383C14.5602 24.1446 14.6956 24.5171 14.9665 24.788C15.2374 25.0251 15.6099 25.1944 15.9824 25.1944C16.3888 25.1944 16.7612 25.0251 17.0321 24.788C17.2692 24.5171 17.4385 24.1446 17.4385 23.7383C17.4385 23.3658 17.2692 22.9933 17.0321 22.7224C16.8967 22.6208 16.7612 22.5192 16.5919 22.4515V20.86L20.0459 18.8282C20.2829 18.6589 20.3845 18.3203 20.2152 18.0833C20.0798 17.8124 19.7411 17.7108 19.4702 17.8801L18.7253 18.3203L15.9824 19.9457ZM13.6798 22.079C13.9507 22.2483 14.0184 22.587 13.8829 22.824C13.7136 23.0949 13.375 23.1626 13.1041 23.0272L11.3771 21.9774C11.1062 22.2145 10.7676 22.3499 10.3951 22.3499C10.0226 22.3499 9.65013 22.1806 9.37923 21.9097C9.14219 21.6727 8.97288 21.3002 8.97288 20.8938C8.97288 20.4875 9.14219 20.1489 9.37923 19.878C9.65013 19.6071 10.0226 19.4377 10.3951 19.4377C10.8015 19.4377 11.1739 19.6071 11.4448 19.878C11.6819 20.1489 11.8512 20.4875 11.8512 20.8938C11.8512 20.9277 11.8512 20.9616 11.8512 20.9954L13.6798 22.079ZM18.3189 22.079C18.048 22.2483 17.9464 22.587 18.1157 22.824C18.2851 23.0949 18.5898 23.1626 18.8607 23.0272L20.6216 21.9774C20.8586 22.2145 21.1972 22.3499 21.5697 22.3499C21.9761 22.3499 22.3485 22.1806 22.5856 21.9097C22.8565 21.6727 23.0258 21.3002 23.0258 20.8938C23.0258 20.4875 22.8565 20.1489 22.5856 19.878C22.3485 19.6071 21.9761 19.4377 21.5697 19.4377C21.1634 19.4377 20.8247 19.6071 20.5538 19.878C20.2829 20.1489 20.1136 20.4875 20.1136 20.8938C20.1136 20.9277 20.1136 20.9616 20.1136 20.9954L18.3189 22.079ZM15.9824 17.4737C16.4565 17.5076 16.9306 17.406 17.2692 17.2028L21.0279 14.9679V17.1351C21.0279 17.4399 21.2649 17.6769 21.5697 17.6769C21.8745 17.6769 22.1115 17.4399 22.1115 17.1351V14.3245C22.1115 14.3245 22.1115 14.3245 22.1115 14.2907L24.0078 13.1732C24.211 13.0377 24.3803 12.9023 24.4819 12.733C24.5835 12.5298 24.6512 12.3605 24.6173 12.1573C24.6173 11.9542 24.5835 11.7848 24.4819 11.5817C24.3464 11.3785 24.1433 11.2092 23.8724 11.0399L17.4046 7.14568C17.0321 6.94251 16.5581 6.80706 16.1179 6.80706C16.084 6.80706 16.0163 6.80706 15.9824 6.80706C15.9485 6.80706 15.9147 6.80706 15.8808 6.80706C15.4406 6.80706 14.9665 6.94251 14.594 7.14568L8.09246 11.0399C7.82156 11.2092 7.65225 11.3785 7.5168 11.5817C7.41521 11.7848 7.34749 11.9542 7.34749 12.1573C7.34749 12.3605 7.41521 12.5298 7.5168 12.733C7.61838 12.9023 7.75383 13.0377 7.95701 13.1732L9.85331 14.2907C9.85331 14.3245 9.85331 14.3245 9.85331 14.3245V17.1351C9.85331 17.4399 10.1242 17.6769 10.3951 17.6769C10.6999 17.6769 10.9708 17.4399 10.9708 17.1351V14.9679L14.7295 17.2028C15.0681 17.406 15.5422 17.5076 15.9824 17.4737ZM15.9824 7.89066C16.0163 7.89066 16.0501 7.89066 16.084 7.89066C16.3549 7.89066 16.6258 7.95838 16.829 8.09383L23.3306 11.988C23.4321 12.0219 23.4999 12.0896 23.5337 12.1573C23.5337 12.1912 23.4999 12.225 23.466 12.225L21.739 13.2409L17.3369 10.5997C17.1676 10.4981 16.9306 10.4303 16.7274 10.3626C16.5242 10.2949 16.2872 10.261 16.0501 10.261H15.9824H15.9485H15.9147C15.7115 10.261 15.4745 10.2949 15.2374 10.3626C15.0343 10.4303 14.8311 10.4981 14.6279 10.5997L10.2258 13.2409L8.53267 12.225C8.49881 12.225 8.46495 12.1912 8.46495 12.1573C8.49881 12.0896 8.56653 12.0219 8.66812 11.988L15.1697 8.09383C15.3729 7.95838 15.6438 7.89066 15.9147 7.89066C15.9485 7.89066 15.9824 7.89066 15.9824 7.89066ZM15.9824 11.3446C16.0163 11.3446 16.0163 11.3446 16.0501 11.3446C16.1856 11.3446 16.321 11.3785 16.4565 11.4124C16.5581 11.4462 16.6935 11.4801 16.7951 11.5478L20.6893 13.8843L16.6935 16.2547C16.5242 16.3563 16.2872 16.3901 16.0163 16.3901H15.9824H15.9485C15.6776 16.3901 15.4406 16.3563 15.2713 16.2547L11.3094 13.8843L15.2036 11.5478C15.3052 11.4801 15.4067 11.4462 15.5422 11.4124C15.6776 11.3785 15.8131 11.3446 15.9485 11.3446H15.9824ZM21.1972 20.5213C21.2988 20.4198 21.4343 20.352 21.5697 20.352C21.7052 20.352 21.8406 20.4198 21.9422 20.5213C22.0438 20.6229 22.1115 20.7584 22.1115 20.8938C22.1115 21.0293 22.0438 21.1647 21.9422 21.2663C21.8406 21.3679 21.7052 21.4356 21.5697 21.4356C21.4343 21.4356 21.2988 21.3679 21.1972 21.2663C21.0956 21.1647 21.0279 21.0293 21.0279 20.8938C21.0279 20.7584 21.0956 20.6229 21.1972 20.5213ZM10.8015 20.5213C10.6999 20.4198 10.5644 20.352 10.3951 20.352C10.2597 20.352 10.1242 20.4198 10.0226 20.5213C9.95489 20.6229 9.88717 20.7584 9.88717 20.8938C9.88717 21.0293 9.95489 21.1647 10.0226 21.2663C10.1242 21.3679 10.2597 21.4356 10.3951 21.4356C10.5644 21.4356 10.6999 21.3679 10.8015 21.2663C10.8692 21.1647 10.9369 21.0293 10.9369 20.8938C10.9369 20.7584 10.8692 20.6229 10.8015 20.5213ZM15.9824 24.2801C15.847 24.2801 15.7115 24.2124 15.6099 24.1446C15.5083 24.043 15.4745 23.9076 15.4745 23.7383C15.4745 23.6028 15.5083 23.4674 15.6099 23.3658C15.7115 23.2642 15.847 23.2303 15.9824 23.2303C16.1517 23.2303 16.2872 23.2642 16.3549 23.3658C16.4565 23.4674 16.5242 23.6028 16.5242 23.7383C16.5242 23.9076 16.4565 24.043 16.3549 24.1446C16.2872 24.2124 16.1517 24.2801 15.9824 24.2801Z" fill="white"/>
</svg>
