<?xml version="1.0" encoding="utf-8"?>
<!-- Generator: Adobe Illustrator 22.0.0, SVG Export Plug-In . SVG Version: 6.00 Build 0)  -->
<svg version="1.1" id="Layer_1" xmlns="http://www.w3.org/2000/svg" xmlns:xlink="http://www.w3.org/1999/xlink" x="0px" y="0px"
	 viewBox="0 0 34.3 34.1" style="enable-background:new 0 0 34.3 34.1;" xml:space="preserve">
<style type="text/css">
	.st0{fill:#FFFFFF;}
</style>
<path d="M4.8,0h24.7c2.6,0,4.6,2.1,4.6,4.6v24.7c0,2.6-2.1,4.6-4.6,4.6H4.8c-2.6,0-4.6-2.1-4.6-4.6V4.6C0.2,2.1,2.2,0,4.8,0z"/>
<path class="st0" d="M17.2,9c0.4,0,0.7,0.3,0.7,0.7v1.1c0,0.4-0.3,0.7-0.7,0.7s-0.7-0.3-0.7-0.7V9.7C16.5,9.3,16.8,9,17.2,9z
	 M11.5,11.3c0.3-0.3,0.7-0.3,1,0l0.8,0.8c0.3,0.3,0.3,0.7,0,1c-0.3,0.3-0.7,0.3-1,0l-0.8-0.8C11.2,12.1,11.2,11.6,11.5,11.3z
	 M22.8,11.3c0.3,0.3,0.3,0.7,0,1L22,13.1c-0.3,0.3-0.7,0.3-1,0c-0.3-0.3-0.3-0.7,0-1l0.8-0.8C22.1,11.1,22.6,11.1,22.8,11.3z
	 M12.3,17c0-2.7,2.2-4.9,4.9-4.9S22,14.3,22,17s-2.2,4.9-4.9,4.9S12.3,19.7,12.3,17z M17.2,13.5c-1.9,0-3.5,1.6-3.5,3.5
	s1.6,3.5,3.5,3.5s3.5-1.6,3.5-3.5S19.1,13.5,17.2,13.5z M9.2,17c0-0.4,0.3-0.7,0.7-0.7H11c0.4,0,0.7,0.3,0.7,0.7s-0.3,0.7-0.7,0.7
	H9.9C9.5,17.7,9.2,17.4,9.2,17z M22.7,17c0-0.4,0.3-0.7,0.7-0.7h1.1c0.4,0,0.7,0.3,0.7,0.7s-0.3,0.7-0.7,0.7h-1.1
	C23,17.7,22.7,17.4,22.7,17z M13.3,20.9c0.3,0.3,0.3,0.7,0,1l-0.8,0.8c-0.3,0.3-0.7,0.3-1,0c-0.3-0.3-0.3-0.7,0-1l0.8-0.8
	C12.6,20.6,13,20.6,13.3,20.9z M21.1,20.9c0.3-0.3,0.7-0.3,1,0l0.8,0.8c0.3,0.3,0.3,0.7,0,1c-0.3,0.3-0.7,0.3-1,0l-0.8-0.8
	C20.8,21.6,20.8,21.2,21.1,20.9z M17.2,22.5c0.4,0,0.7,0.3,0.7,0.7v1.1c0,0.4-0.3,0.7-0.7,0.7s-0.7-0.3-0.7-0.7v-1.1
	C16.5,22.8,16.8,22.5,17.2,22.5z"/>
</svg>
