<svg width="14" height="14" viewBox="0 0 14 14" fill="none" xmlns="http://www.w3.org/2000/svg">
<path d="M7.0001 0.600098C3.4657 0.600098 0.600098 3.4657 0.600098 7.0001C0.600098 10.5345 3.4657 13.4001 7.0001 13.4001C10.5345 13.4001 13.4001 10.5345 13.4001 7.0001C13.4001 3.4657 10.5345 0.600098 7.0001 0.600098ZM9.66677 7.53343H7.53343V9.66677C7.53343 9.9617 7.2945 10.2001 7.0001 10.2001C6.7057 10.2001 6.46676 9.9617 6.46676 9.66677V7.53343H4.33343C4.03903 7.53343 3.8001 7.29503 3.8001 7.0001C3.8001 6.70516 4.03903 6.46676 4.33343 6.46676H6.46676V4.33343C6.46676 4.0385 6.7057 3.8001 7.0001 3.8001C7.2945 3.8001 7.53343 4.0385 7.53343 4.33343V6.46676H9.66677C9.96116 6.46676 10.2001 6.70516 10.2001 7.0001C10.2001 7.29503 9.96116 7.53343 9.66677 7.53343Z" fill="white"/>
</svg>
