<svg width="24" height="24" viewBox="0 0 24 24" fill="none" xmlns="http://www.w3.org/2000/svg">
<path d="M17.5998 0.800049L14.7998 3.60005L20.3998 9.20005L23.1998 6.40005L17.5998 0.800049ZM12.9988 5.47218C12.5434 5.45888 12.0822 5.61194 11.7154 5.92974L11.7136 5.92609C10.7261 6.91356 9.19981 7.33338 7.33314 7.33338C5.80247 7.33338 4.7881 8.27598 4.25423 10.0586C2.6545 15.4038 1.40765 19.2117 0.983919 20.5277L0.989388 20.5295C0.870855 20.7731 0.799805 21.0441 0.799805 21.3334C0.799805 21.4995 0.828942 21.657 0.869076 21.811L8.33574 14.3443C8.29561 14.1903 8.26647 14.0328 8.26647 13.8667C8.26647 12.8354 9.10181 12 10.1331 12C10.6483 12 11.1151 12.2091 11.4529 12.5469C11.7908 12.8848 11.9998 13.3515 11.9998 13.8667C11.9998 14.898 11.1645 15.7334 10.1331 15.7334C9.96701 15.7334 9.80953 15.7042 9.65553 15.6641L2.18887 23.1308C2.34287 23.1709 2.50034 23.2001 2.66647 23.2001C2.9558 23.2001 3.22678 23.1299 3.47038 23.0123L3.4722 23.0159C4.7882 22.5922 8.59601 21.3472 13.9412 19.7474C15.7239 19.2126 16.6665 18.1974 16.6665 16.6667C16.6665 14.8 17.0863 13.2737 18.0738 12.2862L18.0701 12.2844C18.7057 11.5508 18.6835 10.4432 17.9863 9.74693L16.1196 7.88026L14.2529 6.01359C13.9043 5.66499 13.4541 5.48548 12.9988 5.47218Z" fill="#4A5056"/>
</svg>
