<?xml version="1.0" encoding="utf-8"?>
<!-- Generator: Adobe Illustrator 22.0.0, SVG Export Plug-In . SVG Version: 6.00 Build 0)  -->
<svg version="1.1" id="Layer_1" xmlns="http://www.w3.org/2000/svg" xmlns:xlink="http://www.w3.org/1999/xlink" x="0px" y="0px"
	 viewBox="0 0 34.2 34.2" style="enable-background:new 0 0 34.2 34.2;" xml:space="preserve">
<style type="text/css">
	.st0{fill:#FFFFFF;}
	.st1{fill:none;stroke:#000000;stroke-opacity:0.75;}
	.st2{fill-opacity:0.75;}
</style>
<g>
	<path class="st0" d="M5.1,1.1h24c2.2,0,4,1.8,4,4v24c0,2.2-1.8,4-4,4h-24c-2.2,0-4-1.8-4-4v-24C1.1,2.9,2.9,1.1,5.1,1.1z"/>
	<path class="st1" d="M5.1,0.6h24c2.5,0,4.5,2,4.5,4.5v24c0,2.5-2,4.5-4.5,4.5h-24c-2.5,0-4.5-2-4.5-4.5v-24
		C0.6,2.6,2.6,0.6,5.1,0.6z"/>
	<path class="st2" d="M11,16.8c0.9,0.3,1.6,1.1,1.9,2l0,0.1c0.3,1,0.2,2.1-0.4,2.9c-0.1,0.1-0.1,0.3,0,0.4l1.7,1.3
		c0.1,0,0.1,0,0.2,0c0,0,0.1,0,0.1-0.1l0.2-0.3c0.6-0.8,1.4-1.3,2.4-1.3c1.1,0,2,0.5,2.6,1.3l0.1,0.1c0,0.1,0.1,0.1,0.1,0.1
		c0,0,0.1,0,0.2,0l1.6-1.2c0.1-0.1,0.1-0.3,0.1-0.4l-0.2-0.3c-0.5-0.8-0.7-1.8-0.4-2.7c0.3-1,1-1.8,2-2.1l0.2-0.1
		c0.1,0,0.2-0.2,0.2-0.3l-0.6-2c0-0.1-0.1-0.1-0.1-0.2c0,0-0.1,0-0.1,0l-0.3,0.1c-0.9,0.3-2,0.1-2.7-0.5l-0.1-0.1
		c-0.7-0.6-1.2-1.5-1.2-2.4l0-0.2c0-0.1-0.1-0.2-0.1-0.2c0,0-0.1-0.1-0.1-0.1l-2,0c-0.1,0-0.2,0.1-0.2,0.3l0,0.2
		c0,1-0.5,1.9-1.2,2.5l-0.1,0.1c-0.8,0.6-1.9,0.8-2.9,0.5c0,0-0.1,0-0.1,0c0,0-0.1,0-0.1,0.1l-0.7,2.1c0,0.2,0,0.3,0.2,0.4L11,16.8z
		 M14.4,25.1c-0.4,0-0.8-0.1-1.1-0.4l-1.7-1.3c-0.8-0.6-1-1.8-0.4-2.6c0.3-0.4,0.4-1,0.2-1.5l0-0.1c-0.1-0.5-0.5-0.8-0.9-1h0l-0.1,0
		c-1-0.3-1.5-1.4-1.2-2.4l0.7-2.1c0.1-0.5,0.5-0.8,0.9-1.1c0.4-0.2,0.9-0.2,1.3-0.1c0.5,0.2,1,0.1,1.4-0.2l0.1-0.1
		c0.4-0.3,0.6-0.7,0.6-1.2l0-0.2c0-1,0.8-1.9,1.8-1.9h0l2,0c0.5,0,0.9,0.2,1.3,0.5c0.4,0.4,0.5,0.8,0.5,1.3l0,0.2
		c0,0.5,0.2,0.9,0.6,1.1l0.1,0.1c0.4,0.3,0.8,0.4,1.3,0.2l0.3-0.1c0.5-0.2,1-0.1,1.4,0.1c0.4,0.2,0.8,0.6,0.9,1.1l0.6,2
		c0.3,1-0.2,2-1.2,2.3l-0.2,0.1c-0.5,0.2-0.8,0.5-1,1c-0.1,0.4-0.1,0.9,0.2,1.3l0.2,0.3c0.6,0.8,0.4,2-0.4,2.6l-1.6,1.2
		c-0.4,0.3-0.9,0.4-1.4,0.3c-0.5-0.1-0.9-0.4-1.2-0.8l-0.1-0.1c-0.3-0.4-0.7-0.6-1.2-0.6c-0.5,0-0.9,0.2-1.1,0.6l-0.2,0.3
		c-0.3,0.4-0.7,0.7-1.2,0.8C14.6,25.1,14.5,25.1,14.4,25.1z M17.1,15.9c-0.7,0-1.2,0.5-1.2,1.2s0.5,1.2,1.2,1.2s1.2-0.5,1.2-1.2
		S17.8,15.9,17.1,15.9z M17.1,19.9c-1.5,0-2.8-1.3-2.8-2.8c0-1.5,1.3-2.8,2.8-2.8s2.8,1.3,2.8,2.8C19.9,18.7,18.7,19.9,17.1,19.9z"
		/>
</g>
</svg>
