<svg width="312" height="25" viewBox="0 0 312 25" fill="none" xmlns="http://www.w3.org/2000/svg">
<path d="M15.3188 20.3438V24H3.86563V20.3438H15.3188ZM5.38126 1.25V24H0.693756V1.25H5.38126ZM28.7063 24.3125C27.3938 24.3125 26.2167 24.1042 25.175 23.6875C24.1333 23.2604 23.2479 22.6719 22.5188 21.9219C21.8 21.1719 21.2479 20.3021 20.8625 19.3125C20.4771 18.3125 20.2844 17.25 20.2844 16.125V15.5C20.2844 14.2188 20.4667 13.0469 20.8313 11.9844C21.1958 10.9219 21.7167 10 22.3938 9.21875C23.0813 8.4375 23.9146 7.83854 24.8938 7.42188C25.8729 6.99479 26.9771 6.78125 28.2063 6.78125C29.4042 6.78125 30.4667 6.97917 31.3938 7.375C32.3208 7.77083 33.0969 8.33333 33.7219 9.0625C34.3573 9.79167 34.8365 10.6667 35.1594 11.6875C35.4823 12.6979 35.6438 13.8229 35.6438 15.0625V16.9375H22.2063V13.9375H31.2219V13.5938C31.2219 12.9688 31.1073 12.4115 30.8781 11.9219C30.6594 11.4219 30.326 11.026 29.8781 10.7344C29.4302 10.4427 28.8573 10.2969 28.1594 10.2969C27.5656 10.2969 27.0552 10.4271 26.6281 10.6875C26.201 10.9479 25.8521 11.3125 25.5813 11.7812C25.3208 12.25 25.1229 12.8021 24.9875 13.4375C24.8625 14.0625 24.8 14.75 24.8 15.5V16.125C24.8 16.8021 24.8938 17.4271 25.0813 18C25.2792 18.5729 25.5552 19.0677 25.9094 19.4844C26.274 19.901 26.7115 20.224 27.2219 20.4531C27.7427 20.6823 28.3313 20.7969 28.9875 20.7969C29.8 20.7969 30.5552 20.6406 31.2531 20.3281C31.9615 20.0052 32.5708 19.5208 33.0813 18.875L35.2688 21.25C34.9146 21.7604 34.4302 22.25 33.8156 22.7188C33.2115 23.1875 32.4823 23.5729 31.6281 23.875C30.774 24.1667 29.8 24.3125 28.7063 24.3125ZM50.5313 20.1875V12.6562C50.5313 12.1146 50.4427 11.651 50.2656 11.2656C50.0885 10.8698 49.8125 10.5625 49.4375 10.3438C49.0729 10.125 48.599 10.0156 48.0156 10.0156C47.5156 10.0156 47.0833 10.1042 46.7188 10.2812C46.3542 10.4479 46.0729 10.6927 45.875 11.0156C45.6771 11.3281 45.5781 11.6979 45.5781 12.125H41.0781C41.0781 11.4062 41.2448 10.724 41.5781 10.0781C41.9115 9.43229 42.3958 8.86458 43.0313 8.375C43.6667 7.875 44.4219 7.48438 45.2969 7.20312C46.1823 6.92188 47.1719 6.78125 48.2656 6.78125C49.5781 6.78125 50.7448 7 51.7656 7.4375C52.7865 7.875 53.5885 8.53125 54.1719 9.40625C54.7656 10.2812 55.0625 11.375 55.0625 12.6875V19.9219C55.0625 20.849 55.1198 21.6094 55.2344 22.2031C55.349 22.7865 55.5156 23.2969 55.7344 23.7344V24H51.1875C50.9688 23.5417 50.8021 22.9688 50.6875 22.2812C50.5833 21.5833 50.5313 20.8854 50.5313 20.1875ZM51.125 13.7031L51.1563 16.25H48.6406C48.0469 16.25 47.5313 16.3177 47.0938 16.4531C46.6563 16.5885 46.2969 16.7812 46.0156 17.0312C45.7344 17.2708 45.526 17.5521 45.3906 17.875C45.2656 18.1979 45.2031 18.5521 45.2031 18.9375C45.2031 19.3229 45.2917 19.6719 45.4688 19.9844C45.6458 20.2865 45.901 20.526 46.2344 20.7031C46.5677 20.8698 46.9583 20.9531 47.4063 20.9531C48.0833 20.9531 48.6719 20.8177 49.1719 20.5469C49.6719 20.276 50.0573 19.9427 50.3281 19.5469C50.6094 19.151 50.7552 18.776 50.7656 18.4219L51.9531 20.3281C51.7865 20.7552 51.5573 21.1979 51.2656 21.6562C50.9844 22.1146 50.625 22.5469 50.1875 22.9531C49.75 23.349 49.224 23.6771 48.6094 23.9375C47.9948 24.1875 47.2656 24.3125 46.4219 24.3125C45.349 24.3125 44.375 24.099 43.5 23.6719C42.6354 23.2344 41.9479 22.6354 41.4375 21.875C40.9375 21.1042 40.6875 20.2292 40.6875 19.25C40.6875 18.3646 40.8542 17.5781 41.1875 16.8906C41.5208 16.2031 42.0104 15.625 42.6563 15.1562C43.3125 14.6771 44.1302 14.3177 45.1094 14.0781C46.0885 13.8281 47.224 13.7031 48.5156 13.7031H51.125ZM66.2313 10.7812V24H61.7313V7.09375H65.9656L66.2313 10.7812ZM71.325 6.98438L71.2469 11.1562C71.0281 11.125 70.7625 11.099 70.45 11.0781C70.1479 11.0469 69.8719 11.0312 69.6219 11.0312C68.9865 11.0312 68.4344 11.1146 67.9656 11.2812C67.5073 11.4375 67.1219 11.6719 66.8094 11.9844C66.5073 12.2969 66.2781 12.6771 66.1219 13.125C65.976 13.5729 65.8927 14.0833 65.8719 14.6562L64.9656 14.375C64.9656 13.2812 65.075 12.276 65.2938 11.3594C65.5125 10.4323 65.8302 9.625 66.2469 8.9375C66.674 8.25 67.1948 7.71875 67.8094 7.34375C68.424 6.96875 69.1271 6.78125 69.9188 6.78125C70.1688 6.78125 70.424 6.80208 70.6844 6.84375C70.9448 6.875 71.1583 6.92188 71.325 6.98438ZM81.0563 10.7031V24H76.5563V7.09375H80.775L81.0563 10.7031ZM80.4 14.9531H79.1813C79.1813 13.7031 79.3427 12.5781 79.6656 11.5781C79.9886 10.5677 80.4417 9.70833 81.025 9C81.6083 8.28125 82.3011 7.73438 83.1031 7.35938C83.9156 6.97396 84.8219 6.78125 85.8219 6.78125C86.6136 6.78125 87.3375 6.89583 87.9938 7.125C88.65 7.35417 89.2125 7.71875 89.6813 8.21875C90.1604 8.71875 90.525 9.38021 90.775 10.2031C91.0354 11.026 91.1656 12.0312 91.1656 13.2188V24H86.6344V13.2031C86.6344 12.4531 86.5302 11.8698 86.3219 11.4531C86.1136 11.0365 85.8063 10.7448 85.4 10.5781C85.0042 10.401 84.5146 10.3125 83.9313 10.3125C83.3271 10.3125 82.8011 10.4323 82.3531 10.6719C81.9156 10.9115 81.5511 11.2448 81.2594 11.6719C80.9781 12.0885 80.7646 12.5781 80.6188 13.1406C80.4729 13.7031 80.4 14.3073 80.4 14.9531ZM107.272 17.0156V1.25H111.944V17.0156C111.944 18.5365 111.61 19.8438 110.944 20.9375C110.277 22.0208 109.366 22.8542 108.209 23.4375C107.064 24.0208 105.772 24.3125 104.334 24.3125C102.845 24.3125 101.527 24.0625 100.381 23.5625C99.2354 23.0625 98.3344 22.2969 97.6781 21.2656C97.0219 20.224 96.6938 18.9062 96.6938 17.3125H101.397C101.397 18.1458 101.511 18.8073 101.741 19.2969C101.98 19.7865 102.319 20.1354 102.756 20.3438C103.194 20.5521 103.72 20.6562 104.334 20.6562C104.928 20.6562 105.444 20.5156 105.881 20.2344C106.319 19.9531 106.657 19.5417 106.897 19C107.147 18.4583 107.272 17.7969 107.272 17.0156ZM128.003 15.8906H122.206V12.2344H128.003C128.899 12.2344 129.628 12.0885 130.191 11.7969C130.753 11.4948 131.165 11.0781 131.425 10.5469C131.685 10.0156 131.816 9.41667 131.816 8.75C131.816 8.07292 131.685 7.44271 131.425 6.85938C131.165 6.27604 130.753 5.80729 130.191 5.45312C129.628 5.09896 128.899 4.92188 128.003 4.92188H123.831V24H119.144V1.25H128.003C129.784 1.25 131.31 1.57292 132.581 2.21875C133.863 2.85417 134.842 3.73438 135.519 4.85938C136.196 5.98438 136.534 7.27083 136.534 8.71875C136.534 10.1875 136.196 11.4583 135.519 12.5312C134.842 13.6042 133.863 14.4323 132.581 15.0156C131.31 15.599 129.784 15.8906 128.003 15.8906ZM142.406 24V20.3438H157.812V24H142.406ZM144.234 14.25V10.7344H155.984V14.25H144.234ZM142.797 4.92188V1.25H157.094V4.92188H142.797ZM182.106 12.1094V21.125C181.752 21.5521 181.205 22.0156 180.466 22.5156C179.726 23.0052 178.773 23.4271 177.606 23.7812C176.44 24.1354 175.028 24.3125 173.372 24.3125C171.903 24.3125 170.565 24.0729 169.356 23.5938C168.148 23.1042 167.106 22.3906 166.231 21.4531C165.367 20.5156 164.7 19.3698 164.231 18.0156C163.763 16.651 163.528 15.0938 163.528 13.3438V11.9219C163.528 10.1719 163.752 8.61458 164.2 7.25C164.658 5.88542 165.309 4.73438 166.153 3.79688C166.997 2.85938 168.002 2.14583 169.169 1.65625C170.335 1.16667 171.632 0.921875 173.059 0.921875C175.039 0.921875 176.664 1.24479 177.934 1.89062C179.205 2.52604 180.174 3.41146 180.841 4.54688C181.518 5.67188 181.934 6.96354 182.091 8.42188H177.544C177.429 7.65104 177.21 6.97917 176.888 6.40625C176.565 5.83333 176.101 5.38542 175.497 5.0625C174.903 4.73958 174.132 4.57812 173.184 4.57812C172.403 4.57812 171.705 4.73958 171.091 5.0625C170.486 5.375 169.976 5.83854 169.559 6.45312C169.143 7.06771 168.825 7.82812 168.606 8.73438C168.388 9.64062 168.278 10.6927 168.278 11.8906V13.3438C168.278 14.5312 168.393 15.5833 168.622 16.5C168.851 17.4062 169.19 18.1719 169.638 18.7969C170.096 19.4115 170.658 19.875 171.325 20.1875C171.992 20.5 172.768 20.6562 173.653 20.6562C174.393 20.6562 175.007 20.5938 175.497 20.4688C175.997 20.3438 176.398 20.1927 176.7 20.0156C177.013 19.8281 177.252 19.651 177.419 19.4844V15.4531H173.138V12.1094H182.106ZM209.506 5.14062L203.319 24H198.334L206.788 1.25H209.959L209.506 5.14062ZM214.647 24L208.444 5.14062L207.944 1.25H211.147L219.647 24H214.647ZM214.366 15.5312V19.2031H202.35V15.5312H214.366ZM231.941 24H226.988L227.019 20.3438H231.941C233.17 20.3438 234.206 20.0677 235.05 19.5156C235.894 18.9531 236.529 18.1354 236.956 17.0625C237.394 15.9896 237.613 14.6927 237.613 13.1719V12.0625C237.613 10.8958 237.488 9.86979 237.238 8.98438C236.998 8.09896 236.639 7.35417 236.159 6.75C235.68 6.14583 235.092 5.69271 234.394 5.39062C233.696 5.07812 232.894 4.92188 231.988 4.92188H226.894V1.25H231.988C233.508 1.25 234.899 1.51042 236.159 2.03125C237.43 2.54167 238.529 3.27604 239.456 4.23438C240.383 5.19271 241.097 6.33854 241.597 7.67188C242.107 8.99479 242.363 10.4688 242.363 12.0938V13.1719C242.363 14.7865 242.107 16.2604 241.597 17.5938C241.097 18.9271 240.383 20.0729 239.456 21.0312C238.54 21.9792 237.441 22.7135 236.159 23.2344C234.889 23.7448 233.482 24 231.941 24ZM229.644 1.25V24H224.956V1.25H229.644ZM251.109 1.25H255.078L260.922 17.9531L266.766 1.25H270.734L262.516 24H259.328L251.109 1.25ZM248.969 1.25H252.922L253.641 17.5312V24H248.969V1.25ZM268.922 1.25H272.891V24H268.203V17.5312L268.922 1.25ZM285.184 1.25V24H280.513V1.25H285.184ZM311.291 1.25V24H306.603L297.462 8.75V24H292.775V1.25H297.462L306.619 16.5156V1.25H311.291Z" fill="black" fill-opacity="0.9"/>
</svg>
