<svg width="190" height="30" viewBox="0 0 190 30" fill="none" xmlns="http://www.w3.org/2000/svg">
<path fill-rule="evenodd" clip-rule="evenodd" d="M14.9935 0C23.2845 0 30.0188 6.73016 30.0188 14.9841C30.0188 23.2698 23.2845 30 14.9935 30C6.70262 30 0 23.2698 0 14.9841C0 6.73016 6.70262 0 14.9935 0Z" fill="#3A86FF"/>
<path fill-rule="evenodd" clip-rule="evenodd" d="M21.7275 17.8092C21.7911 17.8409 21.8228 17.9044 21.8864 17.9362C22.3311 18.3806 22.5535 18.9838 22.5535 19.587C22.5535 20.2219 22.3311 20.7933 21.8864 21.2378C21.4417 21.6822 20.8699 21.9044 20.2345 21.9044C19.9169 21.9044 19.631 21.8409 19.3451 21.7457L18.2015 22.4124C17.9156 22.5711 17.598 22.6346 17.3121 22.6028C17.2168 23.1108 16.9944 23.5552 16.645 23.9044C16.2003 24.3489 15.6285 24.6028 14.9932 24.6028C14.3896 24.6028 13.7861 24.3489 13.3413 23.9044C12.9919 23.5552 12.7695 23.1108 12.706 22.6028C12.3884 22.6346 12.1025 22.5711 11.8166 22.4124L10.673 21.7457C10.3871 21.8409 10.0694 21.9044 9.75177 21.9044C9.14822 21.9044 8.54467 21.6822 8.13171 21.2378C7.68699 20.7933 7.43286 20.2219 7.43286 19.587C7.43286 18.9838 7.68699 18.3806 8.13171 17.9362C8.16348 17.9044 8.22701 17.8409 8.29054 17.8092V16.0632V15.6505V13.9679L6.98813 13.1743C6.67047 12.9838 6.38458 12.7298 6.19399 12.4124C6.00339 12.0949 5.90809 11.7457 5.93986 11.3647C5.93986 11.0155 6.03516 10.6663 6.22575 10.3806C6.44811 9.99966 6.73401 9.71395 7.1152 9.52347L13.1825 5.87268C13.6908 5.58696 14.2943 5.42823 14.8661 5.39648C14.8979 5.39648 14.9614 5.39648 14.9932 5.39648C15.0567 5.39648 15.0885 5.39648 15.152 5.39648C15.7238 5.42823 16.3273 5.58696 16.8038 5.87268L22.9029 9.52347C23.2523 9.71395 23.57 9.99966 23.7923 10.3806C23.9512 10.6663 24.0782 11.0155 24.0782 11.3647C24.0782 11.7457 23.9829 12.0949 23.7923 12.4124C23.6017 12.7298 23.3476 12.9838 23.03 13.1743L21.7275 13.9679V15.333V16.0632V17.8092ZM14.9932 18.6981L12.4519 17.1743L11.753 16.7616C11.4989 16.6028 11.1812 16.6981 11.0224 16.952C10.8953 17.1743 10.9589 17.4917 11.213 17.6505L14.4531 19.5552V21.0473C14.2943 21.1108 14.1672 21.206 14.0402 21.3013C13.7861 21.5552 13.659 21.9044 13.659 22.2536C13.659 22.6346 13.7861 22.9838 14.0402 23.2378C14.2943 23.46 14.6437 23.6187 14.9932 23.6187C15.3744 23.6187 15.7238 23.46 15.9779 23.2378C16.2003 22.9838 16.3591 22.6346 16.3591 22.2536C16.3591 21.9044 16.2003 21.5552 15.9779 21.3013C15.8508 21.206 15.7238 21.1108 15.5649 21.0473V19.5552L18.8051 17.6505C19.0274 17.4917 19.1227 17.1743 18.9639 16.952C18.8368 16.6981 18.5192 16.6028 18.2651 16.7616L17.5662 17.1743L14.9932 18.6981ZM12.8331 20.6981C13.0872 20.8568 13.1507 21.1743 13.0237 21.3965C12.8648 21.6505 12.5472 21.7139 12.2931 21.587L10.673 20.6028C10.4189 20.8251 10.1012 20.952 9.75177 20.952C9.40235 20.952 9.05292 20.7933 8.7988 20.5393C8.57643 20.3171 8.4176 19.9679 8.4176 19.587C8.4176 19.206 8.57643 18.8886 8.7988 18.6346C9.05292 18.3806 9.40235 18.2219 9.75177 18.2219C10.133 18.2219 10.4824 18.3806 10.7365 18.6346C10.9589 18.8886 11.1177 19.206 11.1177 19.587C11.1177 19.6187 11.1177 19.6505 11.1177 19.6822L12.8331 20.6981ZM17.185 20.6981C16.9309 20.8568 16.8356 21.1743 16.9944 21.3965C17.1532 21.6505 17.4391 21.7139 17.6933 21.587L19.3451 20.6028C19.5675 20.8251 19.8851 20.952 20.2345 20.952C20.6157 20.952 20.9652 20.7933 21.1875 20.5393C21.4417 20.3171 21.6005 19.9679 21.6005 19.587C21.6005 19.206 21.4417 18.8886 21.1875 18.6346C20.9652 18.3806 20.6157 18.2219 20.2345 18.2219C19.8534 18.2219 19.5357 18.3806 19.2816 18.6346C19.0274 18.8886 18.8686 19.206 18.8686 19.587C18.8686 19.6187 18.8686 19.6505 18.8686 19.6822L17.185 20.6981ZM14.9932 16.3806C15.4379 16.4124 15.8826 16.3171 16.2003 16.1266L19.7263 14.0314V16.0632C19.7263 16.3489 19.9487 16.5711 20.2345 16.5711C20.5204 16.5711 20.7428 16.3489 20.7428 16.0632V13.4282C20.7428 13.4282 20.7428 13.4282 20.7428 13.3965L22.5217 12.3489C22.7123 12.2219 22.8711 12.0949 22.9664 11.9362C23.0617 11.7457 23.1252 11.587 23.0935 11.3965C23.0935 11.206 23.0617 11.0473 22.9664 10.8568C22.8394 10.6663 22.6488 10.5076 22.3946 10.3489L16.3273 6.69807C15.9779 6.5076 15.5332 6.38061 15.1202 6.38061C15.0885 6.38061 15.0249 6.38061 14.9932 6.38061C14.9614 6.38061 14.9296 6.38061 14.8979 6.38061C14.4849 6.38061 14.0402 6.5076 13.6908 6.69807L7.59169 10.3489C7.33756 10.5076 7.17873 10.6663 7.05167 10.8568C6.95637 11.0473 6.89284 11.206 6.89284 11.3965C6.89284 11.587 6.95637 11.7457 7.05167 11.9362C7.14696 12.0949 7.27403 12.2219 7.46462 12.3489L9.24352 13.3965C9.24352 13.4282 9.24352 13.4282 9.24352 13.4282V16.0632C9.24352 16.3489 9.49765 16.5711 9.75177 16.5711C10.0377 16.5711 10.2918 16.3489 10.2918 16.0632V14.0314L13.8178 16.1266C14.1355 16.3171 14.5802 16.4124 14.9932 16.3806ZM14.9932 7.39648C15.0249 7.39648 15.0567 7.39648 15.0885 7.39648C15.3426 7.39648 15.5967 7.45998 15.7873 7.58696L21.8864 11.2378C21.9817 11.2695 22.0452 11.333 22.077 11.3965C22.077 11.4282 22.0452 11.46 22.0134 11.46L20.3934 12.4124L16.2638 9.93617C16.105 9.84093 15.8826 9.77744 15.692 9.71395C15.5014 9.65045 15.2791 9.61871 15.0567 9.61871H14.9932H14.9614H14.9296C14.739 9.61871 14.5167 9.65045 14.2943 9.71395C14.1037 9.77744 13.9131 9.84093 13.7225 9.93617L9.59294 12.4124L8.00465 11.46C7.97288 11.46 7.94111 11.4282 7.94111 11.3965C7.97288 11.333 8.03641 11.2695 8.13171 11.2378L14.2308 7.58696C14.4214 7.45998 14.6755 7.39648 14.9296 7.39648C14.9614 7.39648 14.9932 7.39648 14.9932 7.39648ZM14.9932 10.6346C15.0249 10.6346 15.0249 10.6346 15.0567 10.6346C15.1838 10.6346 15.3108 10.6663 15.4379 10.6981C15.5332 10.7298 15.6602 10.7616 15.7555 10.8251L19.4086 13.0155L15.6602 15.2378C15.5014 15.333 15.2791 15.3647 15.0249 15.3647H14.9932H14.9614C14.7073 15.3647 14.4849 15.333 14.3261 15.2378L10.6095 13.0155L14.2625 10.8251C14.3578 10.7616 14.4531 10.7298 14.5802 10.6981C14.7073 10.6663 14.8343 10.6346 14.9614 10.6346H14.9932ZM19.8851 19.2378C19.9804 19.1425 20.1075 19.079 20.2345 19.079C20.3616 19.079 20.4887 19.1425 20.584 19.2378C20.6793 19.333 20.7428 19.46 20.7428 19.587C20.7428 19.7139 20.6793 19.8409 20.584 19.9362C20.4887 20.0314 20.3616 20.0949 20.2345 20.0949C20.1075 20.0949 19.9804 20.0314 19.8851 19.9362C19.7898 19.8409 19.7263 19.7139 19.7263 19.587C19.7263 19.46 19.7898 19.333 19.8851 19.2378ZM10.133 19.2378C10.0377 19.1425 9.9106 19.079 9.75177 19.079C9.62471 19.079 9.49765 19.1425 9.40235 19.2378C9.33882 19.333 9.27529 19.46 9.27529 19.587C9.27529 19.7139 9.33882 19.8409 9.40235 19.9362C9.49765 20.0314 9.62471 20.0949 9.75177 20.0949C9.9106 20.0949 10.0377 20.0314 10.133 19.9362C10.1965 19.8409 10.26 19.7139 10.26 19.587C10.26 19.46 10.1965 19.333 10.133 19.2378ZM14.9932 22.7616C14.8661 22.7616 14.739 22.6981 14.6437 22.6346C14.5484 22.5393 14.5167 22.4124 14.5167 22.2536C14.5167 22.1266 14.5484 21.9997 14.6437 21.9044C14.739 21.8092 14.8661 21.7774 14.9932 21.7774C15.152 21.7774 15.2791 21.8092 15.3426 21.9044C15.4379 21.9997 15.5014 22.1266 15.5014 22.2536C15.5014 22.4124 15.4379 22.5393 15.3426 22.6346C15.2791 22.6981 15.152 22.7616 14.9932 22.7616Z" fill="white"/>
<path d="M46.5383 18.1892H40.9475V9.33209H38.1838V20.6019H46.5383V18.1892ZM122.395 13.967V16.3162H125.858C125.445 17.5543 124.365 18.348 122.872 18.348C120.966 18.348 119.536 16.8877 119.536 14.9829C119.536 13.0781 120.934 11.6178 122.777 11.6178C123.888 11.6178 124.968 11.967 125.604 13.2369L128.304 12.475C127.51 10.2527 125.286 9.07812 122.777 9.07812C119.409 9.07812 116.741 11.6813 116.741 14.9829C116.741 18.2845 119.409 20.8559 122.84 20.8559C126.239 20.8559 128.685 18.4115 128.685 14.9829C128.685 14.6972 128.653 14.3797 128.622 13.967H122.395ZM115.756 18.221H109.753V16.094H115.216V13.84H109.753V11.713H115.725V9.33209H106.957V20.6019H115.756V18.221ZM95.9661 9.33209V20.6019H98.7616V17.1734H101.43C104.035 17.1734 105.687 15.5861 105.687 13.2051C105.687 10.8876 104.098 9.33209 101.525 9.33209H95.9661ZM98.7616 14.8242V11.713H101.208C102.288 11.713 102.955 12.348 102.955 13.2369C102.955 14.221 102.288 14.8242 101.208 14.8242H98.7616ZM94.0602 9.33209H91.2648V16.5384C91.2648 17.6178 90.5659 18.3797 89.5177 18.3797C88.4376 18.3797 87.8023 17.6813 87.6752 16.5384L84.9751 17.0781C85.3245 19.3321 86.9446 20.8559 89.5177 20.8559C92.2495 20.8559 94.0602 19.0781 94.0602 16.5384V9.33209ZM80.6232 11.9035C79.5431 11.9035 78.6537 12.2845 78.0184 12.9511V12.1575H75.3183V20.6019H78.0184V16.6972C78.0184 15.0464 78.7172 14.3162 79.7655 14.3162C80.6232 14.3162 81.2267 15.0146 81.2267 15.9988V20.6019H83.8951V15.4273C83.8951 13.3003 82.5927 11.9035 80.6232 11.9035ZM73.7617 12.0305C72.364 12.0305 71.4428 12.7607 70.8393 13.7765V12.1575H68.1392V20.6019H70.8393V17.967C70.8393 15.7765 71.8875 14.7924 73.7617 14.7924H74.2382L74.3653 12.094C74.1747 12.0623 73.9841 12.0305 73.7617 12.0305ZM66.392 12.1575H63.6919V12.8242C63.0248 12.2527 62.1671 11.9035 61.0553 11.9035C58.8317 11.9035 56.9258 13.713 56.9258 16.3797C56.9258 19.0781 58.8317 20.8559 61.0553 20.8559C62.1671 20.8559 63.0248 20.5384 63.6919 19.9353V20.6019H66.392V12.1575ZM61.6271 18.5702C60.4518 18.5702 59.5941 17.713 59.5941 16.3797C59.5941 15.0781 60.4518 14.1892 61.6271 14.1892C62.7072 14.1892 63.6919 15.0781 63.6919 16.3797C63.6919 17.713 62.7072 18.5702 61.6271 18.5702ZM56.0998 16.3797C56.0363 13.6178 54.1304 11.9035 51.7161 11.9035C49.2702 11.9035 47.2371 13.713 47.2371 16.3797C47.2371 19.0781 49.2702 20.8559 51.7161 20.8559C53.6539 20.8559 55.1786 19.9988 55.9093 18.221L53.5268 17.7448C53.0503 18.5702 52.3515 18.6972 51.7161 18.6972C50.7949 18.6972 50.0961 18.094 49.9055 17.0781H56.0998V16.3797ZM51.7161 14.094C52.5103 14.094 53.1774 14.5067 53.4315 15.4273H49.9372C50.1914 14.5702 50.9855 14.094 51.7161 14.094Z" fill="#00002E"/>
<path d="M134.345 20L138.185 9.5H140.345L144.185 20H142.145L141.305 17.57H137.21L136.355 20H134.345ZM137.735 16.07H140.78L139.25 11.705L137.735 16.07ZM146.288 20V9.5H149.873C151.103 9.5 152.113 9.72 152.903 10.16C153.703 10.59 154.293 11.2 154.673 11.99C155.063 12.77 155.258 13.69 155.258 14.75C155.258 15.81 155.063 16.735 154.673 17.525C154.293 18.305 153.703 18.915 152.903 19.355C152.113 19.785 151.103 20 149.873 20H146.288ZM148.208 18.35H149.783C150.663 18.35 151.358 18.21 151.868 17.93C152.378 17.64 152.743 17.23 152.963 16.7C153.183 16.16 153.293 15.51 153.293 14.75C153.293 14 153.183 13.355 152.963 12.815C152.743 12.275 152.378 11.86 151.868 11.57C151.358 11.28 150.663 11.135 149.783 11.135H148.208V18.35ZM157.702 20V9.5H159.982L163.327 16.16L166.627 9.5H168.907V20H166.987V12.755L164.062 18.5H162.547L159.622 12.755V20H157.702ZM171.694 20V9.5H173.614V20H171.694ZM176.399 20V9.5H178.319L183.254 16.895V9.5H185.174V20H183.254L178.319 12.62V20H176.399Z" fill="black"/>
</svg>
