<svg width="146" height="34" viewBox="0 0 146 34" fill="none" xmlns="http://www.w3.org/2000/svg">
<path fill-rule="evenodd" clip-rule="evenodd" d="M16.9927 0C26.3891 0 34.0214 7.62751 34.0214 16.982C34.0214 26.3725 26.3891 34 16.9927 34C7.5963 34 0 26.3725 0 16.982C0 7.62751 7.5963 0 16.9927 0Z" fill="#3A86FF"/>
<path fill-rule="evenodd" clip-rule="evenodd" d="M24.6249 20.1839C24.6969 20.2199 24.7329 20.2919 24.8049 20.3279C25.3089 20.8316 25.5609 21.5152 25.5609 22.1988C25.5609 22.9183 25.3089 23.566 24.8049 24.0697C24.3009 24.5734 23.6528 24.8252 22.9328 24.8252C22.5728 24.8252 22.2488 24.7533 21.9248 24.6453L20.6287 25.4009C20.3047 25.5808 19.9447 25.6527 19.6207 25.6167C19.5127 26.1924 19.2607 26.6961 18.8646 27.0919C18.3606 27.5956 17.7126 27.8834 16.9926 27.8834C16.3085 27.8834 15.6245 27.5956 15.1205 27.0919C14.7245 26.6961 14.4725 26.1924 14.4005 25.6167C14.0405 25.6527 13.7164 25.5808 13.3924 25.4009L12.0964 24.6453C11.7724 24.7533 11.4124 24.8252 11.0523 24.8252C10.3683 24.8252 9.68428 24.5734 9.21626 24.0697C8.71224 23.566 8.42423 22.9183 8.42423 22.1988C8.42423 21.5152 8.71224 20.8316 9.21626 20.3279C9.25226 20.2919 9.32427 20.2199 9.39627 20.1839V18.2051V17.7374V15.8305L7.92021 14.931C7.5602 14.7152 7.23618 14.4273 7.02018 14.0675C6.80417 13.7077 6.69616 13.312 6.73216 12.8802C6.73216 12.4845 6.84017 12.0887 7.05618 11.7649C7.30819 11.3331 7.6322 11.0093 8.06422 10.7935L14.9405 6.65589C15.5165 6.33208 16.2005 6.15219 16.8486 6.11621C16.8846 6.11621 16.9566 6.11621 16.9926 6.11621C17.0646 6.11621 17.1006 6.11621 17.1726 6.11621C17.8206 6.15219 18.5046 6.33208 19.0447 6.65589L25.9569 10.7935C26.3529 11.0093 26.713 11.3331 26.965 11.7649C27.145 12.0887 27.289 12.4845 27.289 12.8802C27.289 13.312 27.181 13.7077 26.965 14.0675C26.749 14.4273 26.461 14.7152 26.1009 14.931L24.6249 15.8305V17.3776V18.2051V20.1839ZM16.9926 21.1913L14.1125 19.4644L13.3204 18.9966C13.0324 18.8167 12.6724 18.9247 12.4924 19.2125C12.3484 19.4644 12.4204 19.8242 12.7084 20.004L16.3806 22.1628V23.8538C16.2005 23.9257 16.0565 24.0337 15.9125 24.1416C15.6245 24.4294 15.4805 24.8252 15.4805 25.221C15.4805 25.6527 15.6245 26.0485 15.9125 26.3363C16.2005 26.5882 16.5966 26.7681 16.9926 26.7681C17.4246 26.7681 17.8206 26.5882 18.1086 26.3363C18.3606 26.0485 18.5406 25.6527 18.5406 25.221C18.5406 24.8252 18.3606 24.4294 18.1086 24.1416C17.9646 24.0337 17.8206 23.9257 17.6406 23.8538V22.1628L21.3127 20.004C21.5648 19.8242 21.6728 19.4644 21.4928 19.2125C21.3487 18.9247 20.9887 18.8167 20.7007 18.9966L19.9087 19.4644L16.9926 21.1913ZM14.5445 23.458C14.8325 23.6379 14.9045 23.9977 14.7605 24.2495C14.5805 24.5374 14.2205 24.6093 13.9325 24.4654L12.0964 23.3501C11.8084 23.6019 11.4484 23.7458 11.0523 23.7458C10.6563 23.7458 10.2603 23.566 9.97229 23.2781C9.72028 23.0263 9.54028 22.6305 9.54028 22.1988C9.54028 21.767 9.72028 21.4072 9.97229 21.1194C10.2603 20.8316 10.6563 20.6517 11.0523 20.6517C11.4844 20.6517 11.8804 20.8316 12.1684 21.1194C12.4204 21.4072 12.6004 21.767 12.6004 22.1988C12.6004 22.2347 12.6004 22.2707 12.6004 22.3067L14.5445 23.458ZM19.4767 23.458C19.1887 23.6379 19.0807 23.9977 19.2607 24.2495C19.4407 24.5374 19.7647 24.6093 20.0527 24.4654L21.9248 23.3501C22.1768 23.6019 22.5368 23.7458 22.9328 23.7458C23.3648 23.7458 23.7608 23.566 24.0129 23.2781C24.3009 23.0263 24.4809 22.6305 24.4809 22.1988C24.4809 21.767 24.3009 21.4072 24.0129 21.1194C23.7608 20.8316 23.3648 20.6517 22.9328 20.6517C22.5008 20.6517 22.1408 20.8316 21.8528 21.1194C21.5648 21.4072 21.3848 21.767 21.3848 22.1988C21.3848 22.2347 21.3848 22.2707 21.3848 22.3067L19.4767 23.458ZM16.9926 18.5649C17.4966 18.6009 18.0006 18.4929 18.3606 18.2771L22.3568 15.9025V18.2051C22.3568 18.5289 22.6088 18.7808 22.9328 18.7808C23.2568 18.7808 23.5088 18.5289 23.5088 18.2051V15.2189C23.5088 15.2189 23.5088 15.2189 23.5088 15.1829L25.5249 13.9956C25.7409 13.8517 25.9209 13.7077 26.0289 13.5279C26.1369 13.312 26.2089 13.1321 26.1729 12.9162C26.1729 12.7003 26.1369 12.5204 26.0289 12.3046C25.8849 12.0887 25.6689 11.9088 25.3809 11.7289L18.5046 7.59134C18.1086 7.37547 17.6046 7.23156 17.1366 7.23156C17.1006 7.23156 17.0286 7.23156 16.9926 7.23156C16.9566 7.23156 16.9206 7.23156 16.8846 7.23156C16.4166 7.23156 15.9125 7.37547 15.5165 7.59134L8.60424 11.7289C8.31623 11.9088 8.13622 12.0887 7.99221 12.3046C7.88421 12.5204 7.81221 12.7003 7.81221 12.9162C7.81221 13.1321 7.88421 13.312 7.99221 13.5279C8.10022 13.7077 8.24422 13.8517 8.46023 13.9956L10.4763 15.1829C10.4763 15.2189 10.4763 15.2189 10.4763 15.2189V18.2051C10.4763 18.5289 10.7643 18.7808 11.0523 18.7808C11.3763 18.7808 11.6644 18.5289 11.6644 18.2051V15.9025L15.6605 18.2771C16.0205 18.4929 16.5246 18.6009 16.9926 18.5649ZM16.9926 8.38288C17.0286 8.38288 17.0646 8.38288 17.1006 8.38288C17.3886 8.38288 17.6766 8.45484 17.8926 8.59875L24.8049 12.7363C24.9129 12.7723 24.9849 12.8443 25.0209 12.9162C25.0209 12.9522 24.9849 12.9882 24.9489 12.9882L23.1128 14.0675L18.4326 11.2612C18.2526 11.1532 18.0006 11.0813 17.7846 11.0093C17.5686 10.9374 17.3166 10.9014 17.0646 10.9014H16.9926H16.9566H16.9206C16.7046 10.9014 16.4526 10.9374 16.2005 11.0093C15.9845 11.0813 15.7685 11.1532 15.5525 11.2612L10.8723 14.0675L9.07226 12.9882C9.03626 12.9882 9.00025 12.9522 9.00025 12.9162C9.03626 12.8443 9.10826 12.7723 9.21626 12.7363L16.1285 8.59875C16.3445 8.45484 16.6326 8.38288 16.9206 8.38288C16.9566 8.38288 16.9926 8.38288 16.9926 8.38288ZM16.9926 12.0527C17.0286 12.0527 17.0286 12.0527 17.0646 12.0527C17.2086 12.0527 17.3526 12.0887 17.4966 12.1247C17.6046 12.1607 17.7486 12.1966 17.8566 12.2686L21.9968 14.7511L17.7486 17.2697C17.5686 17.3776 17.3166 17.4136 17.0286 17.4136H16.9926H16.9566C16.6686 17.4136 16.4166 17.3776 16.2365 17.2697L12.0244 14.7511L16.1645 12.2686C16.2725 12.1966 16.3806 12.1607 16.5246 12.1247C16.6686 12.0887 16.8126 12.0527 16.9566 12.0527H16.9926ZM22.5368 21.803C22.6448 21.695 22.7888 21.6231 22.9328 21.6231C23.0768 21.6231 23.2208 21.695 23.3288 21.803C23.4368 21.9109 23.5088 22.0548 23.5088 22.1988C23.5088 22.3427 23.4368 22.4866 23.3288 22.5945C23.2208 22.7025 23.0768 22.7744 22.9328 22.7744C22.7888 22.7744 22.6448 22.7025 22.5368 22.5945C22.4288 22.4866 22.3568 22.3427 22.3568 22.1988C22.3568 22.0548 22.4288 21.9109 22.5368 21.803ZM11.4844 21.803C11.3763 21.695 11.2323 21.6231 11.0523 21.6231C10.9083 21.6231 10.7643 21.695 10.6563 21.803C10.5843 21.9109 10.5123 22.0548 10.5123 22.1988C10.5123 22.3427 10.5843 22.4866 10.6563 22.5945C10.7643 22.7025 10.9083 22.7744 11.0523 22.7744C11.2323 22.7744 11.3763 22.7025 11.4844 22.5945C11.5564 22.4866 11.6284 22.3427 11.6284 22.1988C11.6284 22.0548 11.5564 21.9109 11.4844 21.803ZM16.9926 25.7966C16.8486 25.7966 16.7046 25.7247 16.5966 25.6527C16.4886 25.5448 16.4526 25.4009 16.4526 25.221C16.4526 25.0771 16.4886 24.9331 16.5966 24.8252C16.7046 24.7173 16.8486 24.6813 16.9926 24.6813C17.1726 24.6813 17.3166 24.7173 17.3886 24.8252C17.4966 24.9331 17.5686 25.0771 17.5686 25.221C17.5686 25.4009 17.4966 25.5448 17.3886 25.6527C17.3166 25.7247 17.1726 25.7966 16.9926 25.7966Z" fill="white"/>
<path d="M52.4684 13.3259H46.1321V3.28783H43V16.0603H52.4684V13.3259ZM138.44 8.54074V11.2032H142.364C141.896 12.6064 140.672 13.5058 138.98 13.5058C136.82 13.5058 135.2 11.8508 135.2 9.69207C135.2 7.53334 136.784 5.87831 138.872 5.87831C140.132 5.87831 141.356 6.27408 142.076 7.71323L145.136 6.84974C144.236 4.33122 141.716 3 138.872 3C135.056 3 132.032 5.95027 132.032 9.69207C132.032 13.4339 135.056 16.3482 138.944 16.3482C142.796 16.3482 145.568 13.5778 145.568 9.69207C145.568 9.36826 145.532 9.00847 145.496 8.54074H138.44ZM130.916 13.3619H124.111V10.9513H130.303V8.39683H124.111V5.98624H130.88V3.28783H120.943V16.0603H130.916V13.3619ZM108.487 3.28783V16.0603H111.655V12.1746H114.679C117.631 12.1746 119.503 10.3757 119.503 7.67725C119.503 5.05079 117.703 3.28783 114.787 3.28783H108.487ZM111.655 9.51217V5.98624H114.427C115.651 5.98624 116.407 6.70582 116.407 7.71323C116.407 8.82857 115.651 9.51217 114.427 9.51217H111.655ZM106.327 3.28783H103.158V11.455C103.158 12.6783 102.366 13.5418 101.178 13.5418C99.9543 13.5418 99.2342 12.7503 99.0902 11.455L96.0301 12.0667C96.4261 14.6212 98.2622 16.3482 101.178 16.3482C104.274 16.3482 106.327 14.3333 106.327 11.455V3.28783ZM91.0979 6.20212C89.8739 6.20212 88.8658 6.63386 88.1458 7.38942V6.48995H85.0857V16.0603H88.1458V11.6349C88.1458 9.76402 88.9378 8.93651 90.1259 8.93651C91.0979 8.93651 91.7819 9.72805 91.7819 10.8434V16.0603H94.8061V10.1958C94.8061 7.78519 93.33 6.20212 91.0979 6.20212ZM83.3216 6.34603C81.7375 6.34603 80.6935 7.17355 80.0095 8.32487V6.48995H76.9494V16.0603H80.0095V13.0741C80.0095 10.5915 81.1975 9.47619 83.3216 9.47619H83.8616L84.0056 6.41799C83.7896 6.38201 83.5736 6.34603 83.3216 6.34603ZM74.9693 6.48995H71.9092V7.2455C71.1531 6.59789 70.1811 6.20212 68.921 6.20212C66.4009 6.20212 64.2408 8.25291 64.2408 11.2751C64.2408 14.3333 66.4009 16.3482 68.921 16.3482C70.1811 16.3482 71.1531 15.9884 71.9092 15.3048V16.0603H74.9693V6.48995ZM69.5691 13.7577C68.237 13.7577 67.265 12.7862 67.265 11.2751C67.265 9.8 68.237 8.7926 69.5691 8.7926C70.7931 8.7926 71.9092 9.8 71.9092 11.2751C71.9092 12.7862 70.7931 13.7577 69.5691 13.7577ZM63.3048 11.2751C63.2328 8.14498 61.0727 6.20212 58.3366 6.20212C55.5645 6.20212 53.2604 8.25291 53.2604 11.2751C53.2604 14.3333 55.5645 16.3482 58.3366 16.3482C60.5327 16.3482 62.2608 15.3767 63.0888 13.3619L60.3887 12.8222C59.8487 13.7577 59.0566 13.9016 58.3366 13.9016C57.2926 13.9016 56.5005 13.218 56.2845 12.0667H63.3048V11.2751ZM58.3366 8.68466C59.2366 8.68466 59.9927 9.15238 60.2807 10.1958H56.3205C56.6085 9.22434 57.5086 8.68466 58.3366 8.68466Z" fill="#00002E"/>
<path d="M43.23 29L45.79 22H47.23L49.79 29H48.43L47.87 27.38H45.14L44.57 29H43.23ZM45.49 26.38H47.52L46.5 23.47L45.49 26.38ZM51.1917 29V22H53.5817C54.4017 22 55.0751 22.1467 55.6017 22.44C56.1351 22.7267 56.5284 23.1333 56.7817 23.66C57.0417 24.18 57.1717 24.7933 57.1717 25.5C57.1717 26.2067 57.0417 26.8233 56.7817 27.35C56.5284 27.87 56.1351 28.2767 55.6017 28.57C55.0751 28.8567 54.4017 29 53.5817 29H51.1917ZM52.4717 27.9H53.5217C54.1084 27.9 54.5717 27.8067 54.9117 27.62C55.2517 27.4267 55.4951 27.1533 55.6417 26.8C55.7884 26.44 55.8617 26.0067 55.8617 25.5C55.8617 25 55.7884 24.57 55.6417 24.21C55.4951 23.85 55.2517 23.5733 54.9117 23.38C54.5717 23.1867 54.1084 23.09 53.5217 23.09H52.4717V27.9ZM58.8011 29V22H60.3211L62.5511 26.44L64.7511 22H66.2711V29H64.9911V24.17L63.0411 28H62.0311L60.0811 24.17V29H58.8011ZM68.1292 29V22H69.4092V29H68.1292ZM71.2659 29V22H72.5459L75.8359 26.93V22H77.1159V29H75.8359L72.5459 24.08V29H71.2659Z" fill="black"/>
</svg>
