<svg width="17" height="17" viewBox="0 0 17 17" fill="none" xmlns="http://www.w3.org/2000/svg">
<path d="M8.5002 1.1333C8.35767 1.13375 8.22054 1.18789 8.11615 1.28493C8.11541 1.2853 8.11467 1.28566 8.11393 1.28604L2.12409 4.55212C2.03457 4.5754 1.95212 4.62023 1.88392 4.68271L1.8806 4.68493V4.68604C1.82376 4.73898 1.77842 4.80305 1.74739 4.87426C1.71635 4.94546 1.70029 5.02229 1.7002 5.09997C1.7002 5.25026 1.7599 5.39439 1.86617 5.50066C1.97244 5.60693 2.11657 5.66663 2.26686 5.66663V13.6C2.26686 14.2261 2.77403 14.7333 3.4002 14.7333H13.6002C14.2264 14.7333 14.7335 14.2261 14.7335 13.6V5.66663C14.8838 5.66663 15.028 5.60693 15.1342 5.50066C15.2405 5.39439 15.3002 5.25026 15.3002 5.09997C15.3001 5.02229 15.284 4.94546 15.253 4.87426C15.222 4.80305 15.1766 4.73898 15.1198 4.68604C15.1198 4.68567 15.1198 4.6853 15.1198 4.68493L15.1176 4.68382C15.0492 4.62078 14.9663 4.57555 14.8763 4.55212L8.88646 1.28604L8.88424 1.28493C8.77985 1.18789 8.64272 1.13375 8.5002 1.1333ZM7.93353 4.81663H9.06686V5.71865C10.0727 5.89602 10.7506 6.55477 10.7824 7.45407H9.61582C9.55802 6.98544 9.12243 6.6738 8.52233 6.6738C7.90183 6.6738 7.49193 6.96148 7.49193 7.41312C7.49193 7.77862 7.77447 7.98794 8.46921 8.13584L9.18418 8.28857C10.3759 8.53904 10.8897 9.05281 10.8897 9.97308C10.8891 11.0033 10.2064 11.6851 9.06686 11.8557V12.75H7.93353V11.859C6.83873 11.6987 6.14978 11.0535 6.11068 10.1004H7.31042C7.36822 10.5809 7.85241 10.8895 8.55111 10.8895C9.19597 10.8895 9.65234 10.5768 9.65234 10.1291C9.65234 9.75117 9.35618 9.53404 8.62858 9.37764L7.85605 9.21273C6.77542 8.98663 6.2457 8.42431 6.2457 7.52048C6.2457 6.57131 6.89936 5.9022 7.93353 5.72087V4.81663Z" fill="#7D8190"/>
</svg>
