<svg width="17" height="17" viewBox="0 0 17 17" fill="none" xmlns="http://www.w3.org/2000/svg">
<path d="M13.5999 2.2666H3.39993C2.77377 2.2666 2.2666 2.77377 2.2666 3.39993V13.5999C2.2666 14.2261 2.77377 14.7333 3.39993 14.7333H13.5999C14.2261 14.7333 14.7333 14.2261 14.7333 13.5999V3.39993C14.7333 2.77377 14.2261 2.2666 13.5999 2.2666ZM3.9666 13.0333C3.6538 13.0333 3.39993 12.7794 3.39993 12.4666C3.39993 12.1538 3.6538 11.8999 3.9666 11.8999C4.2794 11.8999 4.53327 12.1538 4.53327 12.4666C4.53327 12.7794 4.2794 13.0333 3.9666 13.0333ZM3.9666 10.7666C3.6538 10.7666 3.39993 10.5127 3.39993 10.1999C3.39993 9.88714 3.6538 9.63327 3.9666 9.63327C4.2794 9.63327 4.53327 9.88714 4.53327 10.1999C4.53327 10.5127 4.2794 10.7666 3.9666 10.7666ZM6.23327 13.0333C5.92047 13.0333 5.6666 12.7794 5.6666 12.4666C5.6666 12.1538 5.92047 11.8999 6.23327 11.8999C6.54607 11.8999 6.79993 12.1538 6.79993 12.4666C6.79993 12.7794 6.54607 13.0333 6.23327 13.0333ZM6.23327 10.7666C5.92047 10.7666 5.6666 10.5127 5.6666 10.1999C5.6666 9.88714 5.92047 9.63327 6.23327 9.63327C6.54607 9.63327 6.79993 9.88714 6.79993 10.1999C6.79993 10.5127 6.54607 10.7666 6.23327 10.7666ZM6.23327 8.49993C5.92047 8.49993 5.6666 8.24607 5.6666 7.93327C5.6666 7.62047 5.92047 7.3666 6.23327 7.3666C6.54607 7.3666 6.79993 7.62047 6.79993 7.93327C6.79993 8.24607 6.54607 8.49993 6.23327 8.49993ZM8.49993 13.0333C8.18713 13.0333 7.93327 12.7794 7.93327 12.4666C7.93327 12.1538 8.18713 11.8999 8.49993 11.8999C8.81273 11.8999 9.0666 12.1538 9.0666 12.4666C9.0666 12.7794 8.81273 13.0333 8.49993 13.0333ZM8.49993 10.7666C8.18713 10.7666 7.93327 10.5127 7.93327 10.1999C7.93327 9.88714 8.18713 9.63327 8.49993 9.63327C8.81273 9.63327 9.0666 9.88714 9.0666 10.1999C9.0666 10.5127 8.81273 10.7666 8.49993 10.7666ZM8.49993 8.49993C8.18713 8.49993 7.93327 8.24607 7.93327 7.93327C7.93327 7.62047 8.18713 7.3666 8.49993 7.3666C8.81273 7.3666 9.0666 7.62047 9.0666 7.93327C9.0666 8.24607 8.81273 8.49993 8.49993 8.49993ZM10.7666 13.0333C10.4538 13.0333 10.1999 12.7794 10.1999 12.4666C10.1999 12.1538 10.4538 11.8999 10.7666 11.8999C11.0794 11.8999 11.3333 12.1538 11.3333 12.4666C11.3333 12.7794 11.0794 13.0333 10.7666 13.0333ZM10.7666 10.7666C10.4538 10.7666 10.1999 10.5127 10.1999 10.1999C10.1999 9.88714 10.4538 9.63327 10.7666 9.63327C11.0794 9.63327 11.3333 9.88714 11.3333 10.1999C11.3333 10.5127 11.0794 10.7666 10.7666 10.7666ZM10.1999 7.93327C10.1999 7.62047 10.4538 7.3666 10.7666 7.3666C11.0794 7.3666 11.3333 7.62047 11.3333 7.93327C11.3333 8.24607 11.0794 8.49993 10.7666 8.49993C10.4538 8.49993 10.1999 8.24607 10.1999 7.93327ZM13.0333 10.7666C12.7205 10.7666 12.4666 10.5127 12.4666 10.1999C12.4666 9.88714 12.7205 9.63327 13.0333 9.63327C13.3461 9.63327 13.5999 9.88714 13.5999 10.1999C13.5999 10.5127 13.3461 10.7666 13.0333 10.7666ZM13.0333 8.49993C12.7205 8.49993 12.4666 8.24607 12.4666 7.93327C12.4666 7.62047 12.7205 7.3666 13.0333 7.3666C13.3461 7.3666 13.5999 7.62047 13.5999 7.93327C13.5999 8.24607 13.3461 8.49993 13.0333 8.49993ZM13.5999 5.6666H3.39993V3.39993H13.5999V5.6666Z" fill="#7D8190"/>
</svg>
