<svg width="17" height="17" viewBox="0 0 17 17" fill="none" xmlns="http://www.w3.org/2000/svg">
<path d="M3.39993 2.2666C2.77377 2.2666 2.2666 2.77377 2.2666 3.39993V9.63327C2.2666 10.2594 2.77377 10.7666 3.39993 10.7666H13.5999C14.2261 10.7666 14.7333 10.2594 14.7333 9.63327V3.39993C14.7333 2.77377 14.2261 2.2666 13.5999 2.2666H3.39993ZM5.09993 4.53327H11.8999C12.2127 4.53327 12.4666 4.78713 12.4666 5.09993C12.4666 5.41273 12.2127 5.6666 11.8999 5.6666H5.09993C4.78713 5.6666 4.53327 5.41273 4.53327 5.09993C4.53327 4.78713 4.78713 4.53327 5.09993 4.53327ZM5.09993 7.3666H11.8999C12.2127 7.3666 12.4666 7.62047 12.4666 7.93327C12.4666 8.24607 12.2127 8.49993 11.8999 8.49993H5.09993C4.78713 8.49993 4.53327 8.24607 4.53327 7.93327C4.53327 7.62047 4.78713 7.3666 5.09993 7.3666ZM4.2278 11.8999L11.7749 14.6646C12.3625 14.88 13.0138 14.5783 13.2292 13.9906L13.9951 11.8999H4.2278Z" fill="#7D8190"/>
</svg>
