<svg width="17" height="17" viewBox="0 0 17 17" fill="none" xmlns="http://www.w3.org/2000/svg">
<path d="M2.26712 1.7002C1.64096 1.7002 1.13379 2.20736 1.13379 2.83353V4.53353V13.0335C1.13379 13.6597 1.64096 14.1669 2.26712 14.1669H2.99316C3.1913 14.5027 3.55413 14.7335 3.96712 14.7335H5.66712C6.08012 14.7335 6.44294 14.5027 6.64108 14.1669H10.3598C10.558 14.5027 10.9208 14.7335 11.3338 14.7335H13.0338C13.4468 14.7335 13.8096 14.5027 14.0077 14.1669H14.7338C15.36 14.1669 15.8671 13.6597 15.8671 13.0335V3.96686C15.8671 3.3407 15.36 2.83353 14.7338 2.83353H6.34668L5.99694 2.25026C5.79237 1.90913 5.42356 1.7002 5.0252 1.7002H2.26712ZM4.53379 9.06686H12.4671C12.7873 9.06686 13.0338 9.31334 13.0338 9.63353V13.6002H11.3338V11.3335C11.3338 11.1832 11.2741 11.0391 11.1678 10.9329C11.0615 10.8266 10.9174 10.7669 10.7671 10.7669H6.23379C6.0835 10.7669 5.93938 10.8266 5.83311 10.9329C5.72684 11.0391 5.66714 11.1832 5.66712 11.3335V13.6002H3.96712V9.63353C3.96712 9.31334 4.21361 9.06686 4.53379 9.06686Z" fill="#7D8190"/>
</svg>
