<svg width="17" height="17" viewBox="0 0 17 17" fill="none" xmlns="http://www.w3.org/2000/svg">
<path d="M3.4002 2.83355C3.32511 2.83249 3.25055 2.84636 3.18087 2.87436C3.11119 2.90237 3.04777 2.94394 2.99429 2.99666C2.94081 3.04939 2.89835 3.11222 2.86937 3.18149C2.84038 3.25077 2.82546 3.32512 2.82546 3.40022C2.82546 3.47532 2.84038 3.54967 2.86937 3.61894C2.89835 3.68822 2.94081 3.75105 2.99429 3.80378C3.04777 3.8565 3.11119 3.89807 3.18087 3.92607C3.25055 3.95408 3.32511 3.96795 3.4002 3.96689H13.6002C13.6753 3.96795 13.7498 3.95408 13.8195 3.92607C13.8892 3.89807 13.9526 3.8565 14.0061 3.80378C14.0596 3.75105 14.102 3.68822 14.131 3.61894C14.16 3.54967 14.1749 3.47532 14.1749 3.40022C14.1749 3.32512 14.16 3.25077 14.131 3.18149C14.102 3.11222 14.0596 3.04939 14.0061 2.99666C13.9526 2.94394 13.8892 2.90237 13.8195 2.87436C13.7498 2.84636 13.6753 2.83249 13.6002 2.83355H3.4002ZM2.5834 5.10022L7.81068 9.92574C8.00391 10.1042 8.252 10.1936 8.5002 10.1936C8.7484 10.1936 8.99648 10.1042 9.18971 9.92574L14.417 5.10022H2.5834ZM1.7002 5.82737V13.3656L5.62038 9.44651L1.7002 5.82737ZM15.3002 5.82737L11.38 9.44651L15.3002 13.3656V5.82737ZM6.45378 10.2157L2.5015 14.1669H14.4989L10.5477 10.2157L9.95892 10.7591C9.55659 11.1309 9.01754 11.3174 8.5013 11.3236C7.98507 11.3179 7.44491 11.1309 7.04258 10.7591L6.45378 10.2157Z" fill="#7D8190"/>
</svg>
