<svg width="17" height="17" viewBox="0 0 17 17" fill="none" xmlns="http://www.w3.org/2000/svg">
<path d="M8.5002 1.1333C8.35208 1.13331 8.20985 1.19131 8.10397 1.29489L1.92266 6.35062C1.91552 6.35599 1.90851 6.36152 1.90163 6.36722L1.8806 6.38493V6.38603C1.82376 6.43898 1.77842 6.50305 1.74739 6.57426C1.71635 6.64546 1.70029 6.72229 1.7002 6.79997C1.7002 6.95026 1.7599 7.09439 1.86617 7.20066C1.97244 7.30693 2.11657 7.36663 2.26686 7.36663H2.83353V13.6C2.83353 14.2261 3.3407 14.7333 3.96686 14.7333H13.0335C13.6597 14.7333 14.1669 14.2261 14.1669 13.6V7.36663H14.7335C14.8838 7.36663 15.028 7.30693 15.1342 7.20066C15.2405 7.09439 15.3002 6.95026 15.3002 6.79997C15.3003 6.7221 15.2843 6.64507 15.2532 6.57366C15.2222 6.50225 15.1768 6.438 15.1198 6.38493L15.1109 6.37829C15.0985 6.36702 15.0856 6.35631 15.0722 6.34619L14.1669 5.60576V3.39997C14.1669 3.08717 13.913 2.8333 13.6002 2.8333H13.0335C12.7207 2.8333 12.4669 3.08717 12.4669 3.39997V4.21566L8.88424 1.28493C8.77985 1.18789 8.64272 1.13375 8.5002 1.1333ZM10.2002 8.49997H12.4669V13.0333H10.2002V8.49997Z" fill="#7D8190"/>
</svg>
