<svg width="17" height="17" viewBox="0 0 17 17" fill="none" xmlns="http://www.w3.org/2000/svg">
<path d="M12.4671 1.1333C11.5588 1.1333 10.7058 1.48736 10.0632 2.12939L8.92988 3.26273C8.28785 3.90533 7.93379 4.75827 7.93379 5.66663C7.93379 6.38305 8.15672 7.06289 8.56465 7.63447L7.63496 8.56416C7.06331 8.15643 6.38311 7.9333 5.66712 7.9333C4.75876 7.9333 3.90582 8.28736 3.26322 8.92939L2.12988 10.0627C1.48785 10.7053 1.13379 11.5583 1.13379 12.4666C1.13379 13.375 1.48785 14.2279 2.12988 14.8705C2.77192 15.5131 3.62542 15.8666 4.53379 15.8666C5.44216 15.8666 6.2951 15.5126 6.9377 14.8705L8.07103 13.7372C8.71306 13.0946 9.06712 12.2417 9.06712 11.3333C9.06712 11.0211 9.02252 10.7165 8.94206 10.4235L7.92272 11.4429C7.89665 11.9863 7.68339 12.5217 7.26973 12.9359L6.13639 14.0692C5.25239 14.9532 3.81462 14.9532 2.93118 14.0692C2.04775 13.1852 2.04718 11.7475 2.93118 10.864L4.06452 9.7307C4.50652 9.2887 5.0874 9.06885 5.66823 9.06885C6.0659 9.06885 6.45969 9.17949 6.81263 9.38649L5.26647 10.9326C5.21209 10.9849 5.16867 11.0474 5.13875 11.1166C5.10884 11.1858 5.09304 11.2603 5.09227 11.3357C5.09151 11.4111 5.10579 11.4859 5.13429 11.5557C5.16278 11.6255 5.20492 11.6889 5.25823 11.7422C5.31155 11.7955 5.37496 11.8376 5.44476 11.8661C5.51456 11.8946 5.58934 11.9089 5.66473 11.9081C5.74012 11.9074 5.8146 11.8916 5.88381 11.8617C5.95302 11.8318 6.01556 11.7883 6.06777 11.734L11.7344 6.06729C11.8163 5.98769 11.8723 5.88521 11.8949 5.77328C11.9175 5.66136 11.9058 5.5452 11.8613 5.44003C11.8168 5.33487 11.7416 5.2456 11.6455 5.18393C11.5494 5.12226 11.4369 5.09107 11.3227 5.09443C11.1755 5.09882 11.0358 5.16035 10.9331 5.26598L9.38698 6.81214C8.8763 5.94338 8.9862 4.80854 9.73118 4.06403L10.8645 2.9307C11.3065 2.4887 11.8863 2.26885 12.4671 2.26885C13.048 2.26885 13.6277 2.48926 14.0697 2.9307C14.9537 3.8147 14.9537 5.25247 14.0697 6.1359L12.9364 7.26924C12.5227 7.6829 11.9868 7.89617 11.4434 7.92223L10.424 8.94157C10.717 9.02204 11.0216 9.06663 11.3338 9.06663C12.2422 9.06663 13.0951 8.71257 13.7377 8.07054L14.871 6.93721C15.5131 6.29461 15.8671 5.44167 15.8671 4.5333C15.8671 3.62493 15.5131 2.77199 14.871 2.12939C14.2284 1.48736 13.3755 1.1333 12.4671 1.1333Z" fill="#7D8190"/>
</svg>
