<svg width="190" height="32" viewBox="0 0 190 32" fill="none" xmlns="http://www.w3.org/2000/svg">
<path d="M133.394 23H130.428L134.947 9.90909H138.514L143.027 23H140.061L136.782 12.9006H136.68L133.394 23ZM133.209 17.8544H140.214V20.0149H133.209V17.8544ZM148.252 23.1598C147.507 23.1598 146.831 22.968 146.226 22.5845C145.625 22.1967 145.148 21.6278 144.794 20.8778C144.445 20.1236 144.27 19.1989 144.27 18.1037C144.27 16.9787 144.451 16.0433 144.813 15.2976C145.176 14.5476 145.657 13.9872 146.258 13.6165C146.863 13.2415 147.526 13.054 148.246 13.054C148.796 13.054 149.254 13.1477 149.62 13.3352C149.991 13.5185 150.289 13.7486 150.515 14.0256C150.745 14.2983 150.92 14.5668 151.039 14.831H151.122V9.90909H153.839V23H151.154V21.4276H151.039C150.911 21.7003 150.73 21.9709 150.496 22.2393C150.266 22.5036 149.965 22.723 149.595 22.8977C149.228 23.0724 148.781 23.1598 148.252 23.1598ZM149.115 20.9929C149.554 20.9929 149.925 20.8736 150.227 20.6349C150.534 20.392 150.769 20.0533 150.931 19.6186C151.097 19.1839 151.18 18.6747 151.18 18.0909C151.18 17.5071 151.099 17 150.937 16.5696C150.775 16.1392 150.541 15.8068 150.234 15.5724C149.927 15.3381 149.554 15.2209 149.115 15.2209C148.668 15.2209 148.291 15.3423 147.984 15.5852C147.677 15.8281 147.445 16.1648 147.287 16.5952C147.129 17.0256 147.051 17.5241 147.051 18.0909C147.051 18.6619 147.129 19.1669 147.287 19.6058C147.449 20.0405 147.681 20.3814 147.984 20.6286C148.291 20.8714 148.668 20.9929 149.115 20.9929ZM156.618 23V13.1818H159.213V14.9141H159.328C159.533 14.3388 159.874 13.8849 160.351 13.5526C160.828 13.2202 161.399 13.054 162.064 13.054C162.737 13.054 163.31 13.2223 163.783 13.5589C164.256 13.8913 164.572 14.343 164.729 14.9141H164.832C165.032 14.3516 165.394 13.902 165.918 13.5653C166.447 13.2244 167.071 13.054 167.791 13.054C168.707 13.054 169.451 13.3459 170.022 13.9297C170.597 14.5092 170.885 15.3317 170.885 16.397V23H168.168V16.9339C168.168 16.3885 168.023 15.9794 167.734 15.7067C167.444 15.4339 167.082 15.2976 166.647 15.2976C166.153 15.2976 165.767 15.4553 165.49 15.7706C165.213 16.0817 165.074 16.4929 165.074 17.0043V23H162.435V16.8764C162.435 16.3949 162.296 16.0114 162.019 15.7259C161.746 15.4403 161.386 15.2976 160.939 15.2976C160.636 15.2976 160.364 15.3743 160.121 15.5277C159.882 15.6768 159.692 15.8878 159.552 16.1605C159.411 16.429 159.341 16.7443 159.341 17.1065V23H156.618ZM173.576 23V13.1818H176.299V23H173.576ZM174.944 11.9162C174.539 11.9162 174.192 11.782 173.902 11.5135C173.616 11.2408 173.474 10.9148 173.474 10.5355C173.474 10.1605 173.616 9.83878 173.902 9.57031C174.192 9.29758 174.539 9.16122 174.944 9.16122C175.349 9.16122 175.694 9.29758 175.979 9.57031C176.269 9.83878 176.414 10.1605 176.414 10.5355C176.414 10.9148 176.269 11.2408 175.979 11.5135C175.694 11.782 175.349 11.9162 174.944 11.9162ZM181.743 17.3239V23H179.02V13.1818H181.615V14.9141H181.73C181.948 14.343 182.312 13.8913 182.823 13.5589C183.335 13.2223 183.955 13.054 184.683 13.054C185.365 13.054 185.96 13.2031 186.467 13.5014C186.974 13.7997 187.368 14.2259 187.649 14.7798C187.931 15.3295 188.071 15.9858 188.071 16.7486V23H185.348V17.2344C185.352 16.6335 185.199 16.1648 184.888 15.8281C184.577 15.4872 184.149 15.3168 183.603 15.3168C183.237 15.3168 182.913 15.3956 182.632 15.5533C182.355 15.7109 182.137 15.9411 181.98 16.2436C181.826 16.5419 181.747 16.902 181.743 17.3239Z" fill="#4A5056"/>
<path d="M61.4868 9.0397H57.434L51.7712 19.168L46.0528 9.0397H42V24.9931H46.0528V16.4391L50.7718 24.9931H52.715L57.434 16.4916V24.9931H61.4868V9.0397ZM121.668 7.3604C120.28 7.3604 119.336 8.35749 119.336 9.512C119.336 10.719 120.28 11.6111 121.668 11.6111C123.001 11.6111 124 10.719 124 9.512C124 8.35749 123.001 7.3604 121.668 7.3604ZM123.667 24.9931V13.028H119.614V24.9931H123.667ZM109.066 12.5033H117.949V9.0397H104.902V24.9931H109.066V19.2729H117.005V15.8619H109.066V12.5033ZM103.458 19.0105C103.403 15.1272 100.516 12.6607 96.9072 12.6607C93.2431 12.6607 90.1896 15.2846 90.1896 19.0105C90.1896 22.8414 93.2431 25.3604 96.9072 25.3604C99.7942 25.3604 102.07 24.1534 103.181 21.6345L99.6276 20.9522C98.9059 22.1068 97.851 22.3167 96.9072 22.3167C95.5193 22.3167 94.52 21.4245 94.1869 20.0076H103.458V19.0105ZM96.9072 15.8094C98.0731 15.8094 99.0724 16.3866 99.4611 17.6461H94.2424C94.631 16.4391 95.7969 15.8094 96.9072 15.8094ZM90.4672 13.028H86.2478L83.1943 20.4275L80.1408 13.028H75.8659L81.1401 24.9931H85.2485L90.4672 13.028ZM69.759 12.6607C66.761 12.6607 64.5403 14.1301 63.9851 16.4391L67.7603 17.1738C67.9824 16.1242 68.7041 15.7044 69.87 15.7044C70.9248 15.7044 71.7021 16.3342 71.7021 17.3312V17.5936H68.4265C65.0955 17.5936 63.2079 19.1155 63.2079 21.477C63.2079 23.8385 65.0955 25.3604 67.8714 25.3604C69.5924 25.3604 70.8138 24.8356 71.7021 24.1534V24.9931H75.5884V17.4362C75.5884 14.3925 73.3121 12.6607 69.759 12.6607ZM69.0372 22.5266C67.9824 22.5266 67.2607 22.0543 67.2607 21.2671C67.2607 20.5324 67.8714 20.0076 68.9262 20.0076H71.7021V20.27C71.7021 21.6345 70.4252 22.5266 69.0372 22.5266Z" fill="#373435" fill-opacity="0.95"/>
<path fill-rule="evenodd" clip-rule="evenodd" d="M10.3529 14.6569L16.8634 10.9295L14.7761 9.687L10.3529 7.15234L5.92965 9.687L3.84229 10.9295L10.3529 14.6569Z" fill="white"/>
<path fill-rule="evenodd" clip-rule="evenodd" d="M14.3784 12.371L13.5832 11.9237L10.3528 10.0352L7.12233 11.9237L6.32715 12.371L10.3528 14.6572L14.3784 12.371Z" fill="#666CFF" fill-opacity="0.1"/>
<path fill-rule="evenodd" clip-rule="evenodd" d="M4.88583 16.4967L7.86778 18.2361L10.3527 19.6774L12.8377 18.2361L15.8196 16.4967H15.8693V19.6277C15.8693 20.3235 15.8693 20.9696 15.8693 21.6157L18.3046 23.057V21.8145V17.8882V15.7015V13.4153V12.2226V12.1729L10.3527 16.7949L2.40088 12.1729V12.2226V13.4153V15.7015V23.057L4.83613 21.6157C4.83613 20.9696 4.83613 20.3235 4.83613 19.6277V16.4967H4.88583Z" fill="white"/>
<path fill-rule="evenodd" clip-rule="evenodd" d="M15.9831 0C24.8212 0 32 7.17884 32 15.9831C32 24.8212 24.8212 32 15.9831 32C7.14497 32 0 24.8212 0 15.9831C0 7.17884 7.14497 0 15.9831 0Z" fill="#666CFF"/>
<path d="M15.9831 0.5C24.5457 0.5 31.5 7.45567 31.5 15.9831C31.5 24.545 24.545 31.5 15.9831 31.5C7.42249 31.5 0.5 24.5464 0.5 15.9831C0.5 7.45429 7.42181 0.5 15.9831 0.5Z" stroke="black" stroke-opacity="0.1"/>
<path fill-rule="evenodd" clip-rule="evenodd" d="M23.1612 18.998C23.229 19.0319 23.2628 19.0996 23.3306 19.1335C23.8046 19.6075 24.0417 20.2509 24.0417 20.8943C24.0417 21.5716 23.8046 22.1811 23.3306 22.6552C22.8565 23.1292 22.247 23.3663 21.5697 23.3663C21.2311 23.3663 20.9263 23.2986 20.6216 23.197L19.4025 23.9081C19.0977 24.0774 18.7591 24.1451 18.4544 24.1113C18.3528 24.6531 18.1157 25.1271 17.7433 25.4996C17.2692 25.9737 16.6597 26.2446 15.9824 26.2446C15.339 26.2446 14.6956 25.9737 14.2216 25.4996C13.8491 25.1271 13.612 24.6531 13.5443 24.1113C13.2057 24.1451 12.9009 24.0774 12.5962 23.9081L11.3771 23.197C11.0724 23.2986 10.7337 23.3663 10.3951 23.3663C9.75172 23.3663 9.10833 23.1292 8.66812 22.6552C8.19405 22.1811 7.92315 21.5716 7.92315 20.8943C7.92315 20.2509 8.19405 19.6075 8.66812 19.1335C8.70198 19.0996 8.76971 19.0319 8.83743 18.998V17.1356V16.6954V14.9007L7.44907 14.0541C7.11045 13.8509 6.80569 13.58 6.60251 13.2414C6.39934 12.9028 6.29775 12.5303 6.33161 12.124C6.33161 11.7515 6.4332 11.379 6.63637 11.0742C6.87341 10.6679 7.17817 10.3631 7.58452 10.1599L14.0522 6.26575C14.594 5.96099 15.2374 5.79167 15.847 5.75781C15.8808 5.75781 15.9485 5.75781 15.9824 5.75781C16.0501 5.75781 16.084 5.75781 16.1517 5.75781C16.7612 5.79167 17.4046 5.96099 17.9126 6.26575L24.4142 10.1599C24.7866 10.3631 25.1253 10.6679 25.3623 11.0742C25.5316 11.379 25.6671 11.7515 25.6671 12.124C25.6671 12.5303 25.5655 12.9028 25.3623 13.2414C25.1591 13.58 24.8882 13.8509 24.5496 14.0541L23.1612 14.9007V16.3568V17.1356V18.998ZM15.9824 19.9462L13.2734 18.3208L12.5284 17.8806C12.2575 17.7113 11.9189 17.8128 11.7496 18.0837C11.6142 18.3208 11.6819 18.6594 11.9528 18.8287L15.4067 20.8605V22.452C15.2374 22.5197 15.102 22.6213 14.9665 22.7229C14.6956 22.9938 14.5602 23.3663 14.5602 23.7388C14.5602 24.1451 14.6956 24.5176 14.9665 24.7885C15.2374 25.0255 15.6099 25.1949 15.9824 25.1949C16.3888 25.1949 16.7612 25.0255 17.0321 24.7885C17.2692 24.5176 17.4385 24.1451 17.4385 23.7388C17.4385 23.3663 17.2692 22.9938 17.0321 22.7229C16.8967 22.6213 16.7612 22.5197 16.5919 22.452V20.8605L20.0459 18.8287C20.2829 18.6594 20.3845 18.3208 20.2152 18.0837C20.0798 17.8128 19.7411 17.7113 19.4702 17.8806L18.7253 18.3208L15.9824 19.9462ZM13.6798 22.0795C13.9507 22.2488 14.0184 22.5874 13.8829 22.8245C13.7136 23.0954 13.375 23.1631 13.1041 23.0277L11.3771 21.9779C11.1062 22.215 10.7676 22.3504 10.3951 22.3504C10.0226 22.3504 9.65013 22.1811 9.37923 21.9102C9.14219 21.6732 8.97288 21.3007 8.97288 20.8943C8.97288 20.488 9.14219 20.1493 9.37923 19.8784C9.65013 19.6075 10.0226 19.4382 10.3951 19.4382C10.8015 19.4382 11.1739 19.6075 11.4448 19.8784C11.6819 20.1493 11.8512 20.488 11.8512 20.8943C11.8512 20.9282 11.8512 20.962 11.8512 20.9959L13.6798 22.0795ZM18.3189 22.0795C18.048 22.2488 17.9464 22.5874 18.1157 22.8245C18.2851 23.0954 18.5898 23.1631 18.8607 23.0277L20.6216 21.9779C20.8586 22.215 21.1972 22.3504 21.5697 22.3504C21.9761 22.3504 22.3485 22.1811 22.5856 21.9102C22.8565 21.6732 23.0258 21.3007 23.0258 20.8943C23.0258 20.488 22.8565 20.1493 22.5856 19.8784C22.3485 19.6075 21.9761 19.4382 21.5697 19.4382C21.1634 19.4382 20.8247 19.6075 20.5538 19.8784C20.2829 20.1493 20.1136 20.488 20.1136 20.8943C20.1136 20.9282 20.1136 20.962 20.1136 20.9959L18.3189 22.0795ZM15.9824 17.4742C16.4565 17.5081 16.9306 17.4065 17.2692 17.2033L21.0279 14.9684V17.1356C21.0279 17.4404 21.2649 17.6774 21.5697 17.6774C21.8745 17.6774 22.1115 17.4404 22.1115 17.1356V14.325C22.1115 14.325 22.1115 14.325 22.1115 14.2911L24.0078 13.1737C24.211 13.0382 24.3803 12.9028 24.4819 12.7335C24.5835 12.5303 24.6512 12.361 24.6173 12.1578C24.6173 11.9546 24.5835 11.7853 24.4819 11.5822C24.3464 11.379 24.1433 11.2097 23.8724 11.0404L17.4046 7.14617C17.0321 6.943 16.5581 6.80755 16.1179 6.80755C16.084 6.80755 16.0163 6.80755 15.9824 6.80755C15.9485 6.80755 15.9147 6.80755 15.8808 6.80755C15.4406 6.80755 14.9665 6.943 14.594 7.14617L8.09246 11.0404C7.82156 11.2097 7.65225 11.379 7.5168 11.5822C7.41521 11.7853 7.34749 11.9546 7.34749 12.1578C7.34749 12.361 7.41521 12.5303 7.5168 12.7335C7.61838 12.9028 7.75383 13.0382 7.95701 13.1737L9.85331 14.2911C9.85331 14.325 9.85331 14.325 9.85331 14.325V17.1356C9.85331 17.4404 10.1242 17.6774 10.3951 17.6774C10.6999 17.6774 10.9708 17.4404 10.9708 17.1356V14.9684L14.7295 17.2033C15.0681 17.4065 15.5422 17.5081 15.9824 17.4742ZM15.9824 7.89115C16.0163 7.89115 16.0501 7.89115 16.084 7.89115C16.3549 7.89115 16.6258 7.95887 16.829 8.09432L23.3306 11.9885C23.4321 12.0224 23.4999 12.0901 23.5337 12.1578C23.5337 12.1917 23.4999 12.2255 23.466 12.2255L21.739 13.2414L17.3369 10.6001C17.1676 10.4986 16.9306 10.4308 16.7274 10.3631C16.5242 10.2954 16.2872 10.2615 16.0501 10.2615H15.9824H15.9485H15.9147C15.7115 10.2615 15.4745 10.2954 15.2374 10.3631C15.0343 10.4308 14.8311 10.4986 14.6279 10.6001L10.2258 13.2414L8.53267 12.2255C8.49881 12.2255 8.46495 12.1917 8.46495 12.1578C8.49881 12.0901 8.56653 12.0224 8.66812 11.9885L15.1697 8.09432C15.3729 7.95887 15.6438 7.89115 15.9147 7.89115C15.9485 7.89115 15.9824 7.89115 15.9824 7.89115ZM15.9824 11.3451C16.0163 11.3451 16.0163 11.3451 16.0501 11.3451C16.1856 11.3451 16.321 11.379 16.4565 11.4128C16.5581 11.4467 16.6935 11.4806 16.7951 11.5483L20.6893 13.8848L16.6935 16.2552C16.5242 16.3568 16.2872 16.3906 16.0163 16.3906H15.9824H15.9485C15.6776 16.3906 15.4406 16.3568 15.2713 16.2552L11.3094 13.8848L15.2036 11.5483C15.3052 11.4806 15.4067 11.4467 15.5422 11.4128C15.6776 11.379 15.8131 11.3451 15.9485 11.3451H15.9824ZM21.1972 20.5218C21.2988 20.4202 21.4343 20.3525 21.5697 20.3525C21.7052 20.3525 21.8406 20.4202 21.9422 20.5218C22.0438 20.6234 22.1115 20.7589 22.1115 20.8943C22.1115 21.0298 22.0438 21.1652 21.9422 21.2668C21.8406 21.3684 21.7052 21.4361 21.5697 21.4361C21.4343 21.4361 21.2988 21.3684 21.1972 21.2668C21.0956 21.1652 21.0279 21.0298 21.0279 20.8943C21.0279 20.7589 21.0956 20.6234 21.1972 20.5218ZM10.8015 20.5218C10.6999 20.4202 10.5644 20.3525 10.3951 20.3525C10.2597 20.3525 10.1242 20.4202 10.0226 20.5218C9.95489 20.6234 9.88717 20.7589 9.88717 20.8943C9.88717 21.0298 9.95489 21.1652 10.0226 21.2668C10.1242 21.3684 10.2597 21.4361 10.3951 21.4361C10.5644 21.4361 10.6999 21.3684 10.8015 21.2668C10.8692 21.1652 10.9369 21.0298 10.9369 20.8943C10.9369 20.7589 10.8692 20.6234 10.8015 20.5218ZM15.9824 24.2806C15.847 24.2806 15.7115 24.2128 15.6099 24.1451C15.5083 24.0435 15.4745 23.9081 15.4745 23.7388C15.4745 23.6033 15.5083 23.4679 15.6099 23.3663C15.7115 23.2647 15.847 23.2308 15.9824 23.2308C16.1517 23.2308 16.2872 23.2647 16.3549 23.3663C16.4565 23.4679 16.5242 23.6033 16.5242 23.7388C16.5242 23.9081 16.4565 24.0435 16.3549 24.1451C16.2872 24.2128 16.1517 24.2806 15.9824 24.2806Z" fill="white"/>
</svg>
