<svg width="17" height="17" viewBox="0 0 17 17" fill="none" xmlns="http://www.w3.org/2000/svg">
<path d="M8.49993 1.7002C5.89213 1.7002 3.17969 2.289 3.17969 2.289C2.65949 2.39156 2.2666 2.84996 2.2666 3.4002V6.8002C2.2666 12.6924 7.95651 15.1552 7.95651 15.1552C8.11858 15.2442 8.30217 15.3002 8.49993 15.3002C8.6977 15.3002 8.88129 15.2442 9.04336 15.1552C9.04336 15.1552 14.7333 12.6924 14.7333 6.8002V3.4002C14.7333 2.84996 14.3404 2.39156 13.8202 2.289C13.8202 2.289 11.1077 1.7002 8.49993 1.7002ZM8.49993 2.83353C10.9576 2.83353 13.5539 3.39121 13.58 3.39688L13.5999 6.8002C13.5999 7.4088 13.527 7.97375 13.404 8.5002H8.49993V14.1602L8.49661 14.1624L8.44902 14.137L8.40697 14.1148C8.22953 14.0371 4.49384 12.345 3.59583 8.5002H8.49993V2.83353Z" fill="#7D8190"/>
</svg>
