<svg width="17" height="17" viewBox="0 0 17 17" fill="none" xmlns="http://www.w3.org/2000/svg">
<path d="M2.83379 1.7002V3.96686H2.26712C2.19203 3.9658 2.11748 3.97967 2.0478 4.00767C1.97811 4.03568 1.91469 4.07725 1.86122 4.12997C1.80774 4.1827 1.76528 4.24552 1.73629 4.3148C1.70731 4.38408 1.69238 4.45843 1.69238 4.53353C1.69238 4.60863 1.70731 4.68298 1.73629 4.75225C1.76528 4.82153 1.80774 4.88436 1.86122 4.93709C1.91469 4.98981 1.97811 5.03138 2.0478 5.05938C2.11748 5.08738 2.19203 5.10126 2.26712 5.1002H2.83379C3.14659 5.1002 3.40045 5.3535 3.40045 5.66686C3.40045 5.98023 3.14659 6.23353 2.83379 6.23353H2.26712C2.19203 6.23247 2.11748 6.24634 2.0478 6.27434C1.97811 6.30234 1.91469 6.34391 1.86122 6.39664C1.80774 6.44936 1.76528 6.51219 1.73629 6.58147C1.70731 6.65075 1.69238 6.7251 1.69238 6.8002C1.69238 6.87529 1.70731 6.94964 1.73629 7.01892C1.76528 7.0882 1.80774 7.15103 1.86122 7.20375C1.91469 7.25648 1.97811 7.29805 2.0478 7.32605C2.11748 7.35405 2.19203 7.36792 2.26712 7.36686H2.83379C3.14659 7.36686 3.40045 7.62016 3.40045 7.93353C3.40045 8.2469 3.14659 8.5002 2.83379 8.5002H2.26712C2.19203 8.49913 2.11748 8.51301 2.0478 8.54101C1.97811 8.56901 1.91469 8.61058 1.86122 8.6633C1.80774 8.71603 1.76528 8.77886 1.73629 8.84814C1.70731 8.91742 1.69238 8.99176 1.69238 9.06686C1.69238 9.14196 1.70731 9.21631 1.73629 9.28559C1.76528 9.35487 1.80774 9.41769 1.86122 9.47042C1.91469 9.52314 1.97811 9.56472 2.0478 9.59272C2.11748 9.62072 2.19203 9.63459 2.26712 9.63353H2.83379C3.14659 9.63353 3.40045 9.88683 3.40045 10.2002C3.40045 10.5136 3.14659 10.7669 2.83379 10.7669H2.26712C2.19203 10.7658 2.11748 10.7797 2.0478 10.8077C1.97811 10.8357 1.91469 10.8772 1.86122 10.93C1.80774 10.9827 1.76528 11.0455 1.73629 11.1148C1.70731 11.1841 1.69238 11.2584 1.69238 11.3335C1.69238 11.4086 1.70731 11.483 1.73629 11.5523C1.76528 11.6215 1.80774 11.6844 1.86122 11.7371C1.91469 11.7898 1.97811 11.8314 2.0478 11.8594C2.11748 11.8874 2.19203 11.9013 2.26712 11.9002H2.83379C3.14659 11.9002 3.40045 12.1535 3.40045 12.4669C3.40045 12.7802 3.14659 13.0335 2.83379 13.0335V15.3002H13.0338C13.66 15.3002 14.1671 14.793 14.1671 14.1669V2.83353C14.1671 2.20736 13.66 1.7002 13.0338 1.7002H2.83379ZM6.23379 4.53353H10.7671C11.0799 4.53353 11.3338 4.7874 11.3338 5.1002C11.3338 5.413 11.0799 5.66686 10.7671 5.66686H6.23379C5.92099 5.66686 5.66712 5.413 5.66712 5.1002C5.66712 4.7874 5.92099 4.53353 6.23379 4.53353ZM6.23379 6.8002H10.7671C11.0799 6.8002 11.3338 7.05406 11.3338 7.36686C11.3338 7.67966 11.0799 7.93353 10.7671 7.93353H6.23379C5.92099 7.93353 5.66712 7.67966 5.66712 7.36686C5.66712 7.05406 5.92099 6.8002 6.23379 6.8002Z" fill="#7D8190"/>
</svg>
