<svg width="17" height="17" viewBox="0 0 17 17" fill="none" xmlns="http://www.w3.org/2000/svg">
<path d="M11.9002 1.69995L10.2002 3.39995L13.6002 6.79995L15.3002 5.09995L11.9002 1.69995ZM9.10671 4.5366C8.83024 4.52853 8.55024 4.62145 8.32754 4.8144L8.32643 4.81219C7.7269 5.41172 6.8002 5.66662 5.66686 5.66662C4.73753 5.66662 4.12166 6.23891 3.79753 7.32124C2.82626 10.5665 2.06925 12.8784 1.81198 13.6774L1.8153 13.6785C1.74333 13.8264 1.7002 13.991 1.7002 14.1666C1.7002 14.2675 1.71789 14.3631 1.74225 14.4566L6.27559 9.92326C6.25122 9.82976 6.23353 9.73415 6.23353 9.63328C6.23353 9.00712 6.7407 8.49995 7.36686 8.49995C7.67966 8.49995 7.96303 8.62685 8.16816 8.83198C8.3733 9.03712 8.5002 9.32048 8.5002 9.63328C8.5002 10.2595 7.99303 10.7666 7.36686 10.7666C7.266 10.7666 7.17039 10.7489 7.07689 10.7246L2.54355 15.2579C2.63705 15.2823 2.73266 15.3 2.83353 15.3C3.0092 15.3 3.17371 15.2574 3.32161 15.186L3.32272 15.1882C4.12172 14.9309 6.43361 14.175 9.67891 13.2037C10.7612 12.879 11.3335 12.2626 11.3335 11.3333C11.3335 10.2 11.5884 9.27325 12.188 8.67371L12.1857 8.67261C12.5716 8.22721 12.5581 7.55472 12.1348 7.13198L11.0015 5.99865L9.86816 4.86532C9.65651 4.65367 9.38317 4.54468 9.10671 4.5366Z" fill="#7D8190"/>
</svg>
