<svg width="17" height="17" viewBox="0 0 17 17" fill="none" xmlns="http://www.w3.org/2000/svg">
<path d="M3.39993 2.2666C2.78053 2.2666 2.2666 2.78053 2.2666 3.39993V4.53327C2.2666 5.15267 2.78053 5.6666 3.39993 5.6666H13.5999C14.2193 5.6666 14.7333 5.15267 14.7333 4.53327V3.39993C14.7333 2.78053 14.2193 2.2666 13.5999 2.2666H3.39993ZM5.09993 3.39993H13.5999V4.53327H5.09993V3.39993ZM3.39993 6.79993C2.78053 6.79993 2.2666 7.31387 2.2666 7.93327V9.0666C2.2666 9.686 2.78053 10.1999 3.39993 10.1999H13.5999C14.2193 10.1999 14.7333 9.686 14.7333 9.0666V7.93327C14.7333 7.31387 14.2193 6.79993 13.5999 6.79993H3.39993ZM11.3333 7.93327H13.5999V9.0666H11.3333V7.93327ZM3.39993 11.3333C2.78053 11.3333 2.2666 11.8472 2.2666 12.4666V13.5999C2.2666 14.2193 2.78053 14.7333 3.39993 14.7333H13.5999C14.2193 14.7333 14.7333 14.2193 14.7333 13.5999V12.4666C14.7333 11.8472 14.2193 11.3333 13.5999 11.3333H3.39993ZM8.49993 12.4666H13.5999V13.5999H8.49993V12.4666Z" fill="#7D8190"/>
</svg>
