<svg width="17" height="17" viewBox="0 0 17 17" fill="none" xmlns="http://www.w3.org/2000/svg">
<path d="M8.5 3.3999C6.69687 3.3999 5.95 4.55647 5.95 5.9499C5.95 6.4191 6.17467 6.89066 6.17467 6.89066C6.08457 6.94279 5.93473 7.10848 5.97214 7.40088C6.04183 7.94601 6.2785 8.08349 6.42923 8.09482C6.48646 8.60369 7.03403 9.25527 7.225 9.3499V10.1103C6.8 11.3853 3.4 11.1916 3.4 14.1666H13.6C13.6 11.1916 10.2 11.3853 9.775 10.1103V9.3499C9.96653 9.25527 10.5135 8.60369 10.5708 8.09482C10.7215 8.08349 10.9582 7.94601 11.0279 7.40088C11.0653 7.10791 10.9154 6.94279 10.8253 6.89066C10.8253 6.89066 11.05 6.465 11.05 5.9499C11.05 4.918 10.6448 4.0374 9.775 4.0374C9.775 4.0374 9.47297 3.3999 8.5 3.3999ZM12.75 4.53213C12.4599 4.53213 12.213 4.58461 11.9863 4.65941C12.1104 5.04417 12.1833 5.47334 12.1833 5.9499C12.1833 6.25137 12.136 6.52775 12.076 6.75895C12.1581 7.00205 12.1864 7.26939 12.1512 7.54365C12.0713 8.16755 11.8291 8.5916 11.5248 8.8585C11.4364 9.0727 11.3154 9.27563 11.185 9.46943C11.346 9.7998 11.5815 10.0939 11.6875 10.1534V10.1601C12.8418 10.7012 14.7333 11.6109 14.7333 14.1666H17C17 11.357 14.1667 11.7604 13.8125 10.5563V10.1523C13.9717 10.0628 14.4279 9.44749 14.4755 8.96696C14.6007 8.95619 14.7984 8.82685 14.8562 8.31175C14.8874 8.03522 14.7628 7.87961 14.688 7.83031C14.688 7.83031 14.875 7.4272 14.875 6.94157C14.875 5.9669 14.5373 5.13532 13.8125 5.13532C13.8125 5.13532 13.5609 4.53213 12.75 4.53213ZM4.25 4.53324C3.4391 4.53324 3.1875 5.13532 3.1875 5.13532C2.46273 5.13532 2.125 5.96801 2.125 6.94268C2.125 7.42888 2.31204 7.83031 2.31204 7.83031C2.23668 7.87904 2.11265 8.03522 2.14382 8.31175C2.20162 8.82685 2.39931 8.9573 2.52454 8.96807C2.57214 9.4486 3.02827 10.0639 3.1875 10.1534V10.5563C2.83333 11.7599 0 11.357 0 14.1666H2.26667C2.26667 11.6109 4.1582 10.7018 5.3125 10.1601V10.1523C5.41847 10.0928 5.65404 9.80037 5.81497 9.46943C5.68464 9.27563 5.5636 9.07159 5.4752 8.85739C5.1709 8.59106 4.9281 8.16699 4.84876 7.54365C4.81306 7.26599 4.84237 6.99436 4.92624 6.74899C4.86504 6.51609 4.81667 6.23947 4.81667 5.9499C4.81667 5.48127 4.88301 5.05046 5.00371 4.65719C4.77988 4.58409 4.53617 4.53324 4.25 4.53324Z" fill="#7D8190"/>
</svg>
