<svg width="17" height="17" viewBox="0 0 17 17" fill="none" xmlns="http://www.w3.org/2000/svg">
<path d="M2.83327 2.2666C2.52047 2.2666 2.2666 2.52047 2.2666 2.83327V14.1666C2.2666 14.4794 2.52047 14.7333 2.83327 14.7333H5.09993C5.41273 14.7333 5.6666 14.4794 5.6666 14.1666V2.83327C5.6666 2.52047 5.41273 2.2666 5.09993 2.2666H2.83327ZM7.3666 2.2666C7.0538 2.2666 6.79993 2.52047 6.79993 2.83327V7.3666C6.79993 7.6794 7.0538 7.93327 7.3666 7.93327H14.1666C14.4794 7.93327 14.7333 7.6794 14.7333 7.3666V2.83327C14.7333 2.52047 14.4794 2.2666 14.1666 2.2666H7.3666ZM7.3666 9.0666C7.0538 9.0666 6.79993 9.32047 6.79993 9.63327V14.1666C6.79993 14.4794 7.0538 14.7333 7.3666 14.7333H9.63327C9.94607 14.7333 10.1999 14.4794 10.1999 14.1666V9.63327C10.1999 9.32047 9.94607 9.0666 9.63327 9.0666H7.3666ZM11.8999 9.0666C11.5871 9.0666 11.3333 9.32047 11.3333 9.63327V14.1666C11.3333 14.4794 11.5871 14.7333 11.8999 14.7333H14.1666C14.4794 14.7333 14.7333 14.4794 14.7333 14.1666V9.63327C14.7333 9.32047 14.4794 9.0666 14.1666 9.0666H11.8999Z" fill="#7D8190"/>
</svg>
