<svg width="38" height="38" viewBox="0 0 38 38" fill="none" xmlns="http://www.w3.org/2000/svg">
<g filter="url(#filter0_d_213_2023)">
<rect x="1.5" y="1.5" width="33" height="33" rx="4.5" fill="black" stroke="black"/>
<path fill-rule="evenodd" clip-rule="evenodd" d="M18 10C18.3842 10 18.6957 10.3115 18.6957 10.6957V11.7913C18.6957 12.1755 18.3842 12.487 18 12.487C17.6158 12.487 17.3043 12.1755 17.3043 11.7913V10.6957C17.3043 10.3115 17.6158 10 18 10ZM12.3431 12.3431C12.6148 12.0715 13.0553 12.0715 13.3269 12.3431L14.1017 13.1179C14.3733 13.3895 14.3733 13.83 14.1017 14.1017C13.83 14.3733 13.3895 14.3733 13.1179 14.1017L12.3431 13.3269C12.0715 13.0553 12.0715 12.6148 12.3431 12.3431ZM23.6568 12.3431C23.9285 12.6148 23.9285 13.0553 23.6568 13.3269L22.8821 14.1017C22.6105 14.3733 22.17 14.3733 21.8983 14.1017C21.6267 13.83 21.6267 13.3895 21.8983 13.1179L22.673 12.3432C22.9447 12.0715 23.3852 12.0715 23.6568 12.3431ZM13.1304 18C13.1304 15.3106 15.3106 13.1304 18 13.1304C20.6894 13.1304 22.8696 15.3106 22.8696 18C22.8696 20.6894 20.6894 22.8696 18 22.8696C15.3106 22.8696 13.1304 20.6894 13.1304 18ZM18 14.5217C16.079 14.5217 14.5217 16.079 14.5217 18C14.5217 19.921 16.079 21.4783 18 21.4783C19.921 21.4783 21.4783 19.921 21.4783 18C21.4783 16.079 19.921 14.5217 18 14.5217ZM10 18C10 17.6158 10.3115 17.3043 10.6957 17.3043H11.7913C12.1755 17.3043 12.487 17.6158 12.487 18C12.487 18.3842 12.1755 18.6957 11.7913 18.6957H10.6957C10.3115 18.6957 10 18.3842 10 18ZM23.513 18C23.513 17.6158 23.8245 17.3043 24.2087 17.3043H25.3043C25.6885 17.3043 26 17.6158 26 18C26 18.3842 25.6885 18.6957 25.3043 18.6957H24.2087C23.8245 18.6957 23.513 18.3842 23.513 18ZM14.1017 21.8983C14.3733 22.17 14.3733 22.6105 14.1017 22.8821L13.3269 23.6568C13.0553 23.9285 12.6148 23.9285 12.3431 23.6568C12.0715 23.3852 12.0715 22.9447 12.3432 22.673L13.1179 21.8983C13.3895 21.6267 13.83 21.6267 14.1017 21.8983ZM21.8983 21.8983C22.17 21.6267 22.6105 21.6267 22.8821 21.8983L23.6568 22.673C23.9285 22.9447 23.9285 23.3852 23.6568 23.6568C23.3852 23.9285 22.9447 23.9285 22.673 23.6568L21.8983 22.8821C21.6267 22.6105 21.6267 22.17 21.8983 21.8983ZM18 23.513C18.3842 23.513 18.6957 23.8245 18.6957 24.2087V25.3043C18.6957 25.6885 18.3842 26 18 26C17.6158 26 17.3043 25.6885 17.3043 25.3043V24.2087C17.3043 23.8245 17.6158 23.513 18 23.513Z" fill="white"/>
</g>
<defs>
<filter id="filter0_d_213_2023" x="0" y="0" width="38" height="38" filterUnits="userSpaceOnUse" color-interpolation-filters="sRGB">
<feFlood flood-opacity="0" result="BackgroundImageFix"/>
<feColorMatrix in="SourceAlpha" type="matrix" values="0 0 0 0 0 0 0 0 0 0 0 0 0 0 0 0 0 0 127 0" result="hardAlpha"/>
<feOffset dx="1" dy="1"/>
<feGaussianBlur stdDeviation="1"/>
<feComposite in2="hardAlpha" operator="out"/>
<feColorMatrix type="matrix" values="0 0 0 0 0 0 0 0 0 0 0 0 0 0 0 0 0 0 0.05 0"/>
<feBlend mode="normal" in2="BackgroundImageFix" result="effect1_dropShadow_213_2023"/>
<feBlend mode="normal" in="SourceGraphic" in2="effect1_dropShadow_213_2023" result="shape"/>
</filter>
</defs>
</svg>
